<?xml version="1.0" encoding="utf-8"?>
<!-- Generator: Adobe Illustrator 21.0.2, SVG Export Plug-In . SVG Version: 6.00 Build 0)  -->
<svg version="1.1" id="Layer_1" xmlns="http://www.w3.org/2000/svg" xmlns:xlink="http://www.w3.org/1999/xlink" x="0px" y="0px"
	 viewBox="0 0 215 194" style="enable-background:new 0 0 215 194;" xml:space="preserve">
<style type="text/css">
	.st0{fill:#FFFFFF;}
	.st1{fill:#D59B2F;}
	.st2{fill:#2D8888;}
	.st3{display:none;clip-path:url(#SVGID_2_);}
	.st4{fill:#237373;}
	.st5{fill:#F1F1F2;}
	.st6{fill:#ED3341;}
	.st7{fill:#BE1E2D;stroke:#BE1E2D;stroke-width:0.5368;stroke-linecap:round;stroke-linejoin:round;stroke-miterlimit:10;}
	.st8{fill:#ED3341;stroke:#ED3341;stroke-width:0.2684;stroke-miterlimit:10;}
</style>
<g>
	<g>
		<g id="grunge-brush-6.tif_4_">
		</g>
	</g>
	<path class="st0" d="M24.2,71.2c-0.2-0.7-0.4-1.2-0.8-1.7c-0.3-0.5-0.7-0.8-1.1-1.1c-0.4-0.3-0.9-0.4-1.4-0.3l-10.3,1.1
		c-0.4,0-0.9,0.2-1.3,0.6c-0.4,0.3-0.7,0.7-1,1.2s-0.5,1.1-0.7,1.7c-0.2,0.7-0.2,1.4-0.2,2.1v25.5c0,0.6,0.2,0.9,0.5,0.9h3.8
		c0.4,0,0.5-0.3,0.5-0.9v-8.2c0-0.2,0.1-0.5,0.2-0.6c0.1-0.2,0.2-0.3,0.4-0.3l5.7-0.2c0.2,0,0.3,0.1,0.4,0.2
		c0.1,0.2,0.1,0.4,0.1,0.6v8.4c0,0.3,0.1,0.5,0.2,0.6c0.1,0.2,0.2,0.3,0.4,0.3h4.2c0.2,0,0.3-0.1,0.4-0.3c0.1-0.2,0.2-0.4,0.2-0.6
		v-27C24.5,72.6,24.4,71.9,24.2,71.2z M19.2,84l-6.8,0.4v-8.1l6.8-0.6V84z M45.7,66c0.5,0.3,0.9,0.7,1.3,1.1
		c0.4,0.5,0.7,1.1,0.9,1.8c0.2,0.7,0.3,1.5,0.3,2.3v29.1c0,0.3-0.1,0.5-0.2,0.7c-0.1,0.2-0.3,0.3-0.5,0.3h-4.9
		c-0.2,0-0.3-0.1-0.4-0.3c-0.1-0.2-0.2-0.4-0.2-0.7V75.4c0-0.3-0.1-0.5-0.2-0.6c-0.1-0.2-0.3-0.2-0.5-0.2l-6.6,0.5
		c-0.2,0-0.3,0.1-0.4,0.3c-0.1,0.2-0.2,0.4-0.2,0.7v24.3c0,0.6-0.2,0.9-0.6,0.9h-4.4c-0.4,0-0.6-0.3-0.6-0.9V68.3
		c0-0.6,0.2-0.9,0.6-1l15-1.6C44.7,65.6,45.2,65.7,45.7,66z M75.5,66.2c-0.3-0.8-0.6-1.4-1-2c-0.4-0.5-0.9-0.9-1.5-1.2
		s-1.2-0.4-1.9-0.3l-13.8,1.5c-0.6,0.1-1.2,0.3-1.7,0.7c-0.5,0.4-1,0.9-1.4,1.5s-0.7,1.3-0.9,2C53.1,69.2,53,70,53,70.8v29.5
		c0,0.7,0.2,1,0.7,1h5.2c0.5,0,0.7-0.3,0.7-1v-9.5c0-0.3,0.1-0.5,0.2-0.7c0.1-0.2,0.3-0.3,0.5-0.3l7.7-0.3c0.2,0,0.4,0.1,0.5,0.3
		c0.1,0.2,0.2,0.4,0.2,0.7v9.8c0,0.3,0.1,0.5,0.2,0.7s0.3,0.3,0.5,0.3h5.7c0.2,0,0.4-0.1,0.6-0.3c0.2-0.2,0.2-0.5,0.2-0.8V68.7
		C75.9,67.9,75.7,67,75.5,66.2z M68.6,81.2l-9.2,0.5v-9.4l9.2-0.8V81.2z M105.8,59.3c0.2,0.2,0.3,0.5,0.3,0.8v21.6
		c0,1-0.2,1.9-0.5,2.8s-0.7,1.6-1.2,2.3c-0.5,0.6-1.1,1.2-1.8,1.6c-0.7,0.4-1.4,0.6-2.2,0.6l-3.6,0.1v11.1c0,0.3-0.1,0.6-0.3,0.8
		c-0.2,0.2-0.4,0.3-0.6,0.3h-6.4c-0.2,0-0.4-0.1-0.6-0.3c-0.2-0.2-0.2-0.5-0.2-0.8V89.3l-3.4,0.1c-0.7,0-1.4-0.1-2-0.5
		c-0.6-0.3-1.2-0.8-1.6-1.4c-0.5-0.6-0.8-1.3-1.1-2.1c-0.3-0.8-0.4-1.7-0.4-2.6v-20c0-0.7,0.3-1.1,0.8-1.2l5.8-0.6
		c0.2,0,0.4,0.1,0.6,0.3s0.2,0.4,0.2,0.8v17.2c0,0.3,0.1,0.6,0.2,0.8c0.1,0.2,0.3,0.3,0.6,0.3l8.5-0.5c0.6,0,0.9-0.4,0.9-1.2V61
		c0-0.7,0.3-1.2,0.9-1.2l6.3-0.7C105.4,59,105.6,59.1,105.8,59.3z M142.1,59.8c-0.4-0.9-0.9-1.7-1.5-2.3s-1.3-1.1-2.1-1.4
		c-0.8-0.3-1.7-0.4-2.6-0.3l-19.2,2.1c-0.8,0.1-1.6,0.4-2.3,0.8c-0.7,0.5-1.4,1.1-1.9,1.7c-0.5,0.7-1,1.5-1.3,2.4s-0.5,1.9-0.5,2.8
		v34.5c0,0.8,0.3,1.2,1,1.2h7.1c0.7,0,1-0.4,1-1.2V88.9c0-0.3,0.1-0.6,0.3-0.9c0.2-0.2,0.4-0.4,0.7-0.4l10.7-0.4
		c0.3,0,0.5,0.1,0.7,0.3c0.2,0.2,0.3,0.5,0.3,0.9V100c0,0.3,0.1,0.6,0.3,0.9c0.2,0.2,0.5,0.4,0.8,0.4h8c0.3,0,0.6-0.1,0.8-0.4
		c0.2-0.2,0.3-0.5,0.3-0.9V62.7C142.7,61.7,142.5,60.7,142.1,59.8z M132.5,77.6l-12.8,0.7v-11l12.8-1.1V77.6z M150,65.7
		c-0.2-0.2-0.3-0.5-0.3-0.8v-9.4c0-0.9,0.4-1.3,1.2-1.4l8.6-0.9c0.8-0.1,1.2,0.3,1.2,1.2v8V64c0,0.4-0.1,0.8-0.2,1.2
		c-0.1,0.4-0.3,0.8-0.5,1.2l-2.5,4.4c-0.2,0.3-0.5,0.5-0.8,0.8c-0.3,0.2-0.7,0.4-1,0.4l-4.3,0.3c-0.3,0-0.5-0.1-0.6-0.3
		c-0.1-0.2-0.1-0.4,0.2-0.7l2.5-4.3c0.2-0.3,0.3-0.6,0.3-0.8c0-0.2-0.1-0.3-0.2-0.3l-2.6,0.2C150.5,66,150.2,65.9,150,65.7z
		 M200.6,70.4c1.1,0.4,2,1,2.8,1.7c0.8,0.8,1.4,1.7,1.9,2.7s0.7,2.2,0.7,3.4v14.3c0,1.2-0.2,2.4-0.7,3.5s-1.1,2-1.9,2.9
		c-0.8,0.8-1.7,1.4-2.8,1.9s-2.2,0.7-3.4,0.7h-28.1c-0.8,0-1.3-0.4-1.3-1.3v-8.5c0-0.4,0.1-0.7,0.4-1c0.2-0.3,0.5-0.4,0.9-0.4
		l23.7-0.6c0.4,0,0.7-0.1,1-0.4s0.4-0.6,0.4-1v-6.2c0-0.4-0.1-0.7-0.4-1c-0.3-0.3-0.6-0.4-1-0.4l-17.1,0.7c-1.1,0-2.1-0.1-3.1-0.5
		s-1.8-0.9-2.5-1.7c-0.7-0.7-1.3-1.6-1.7-2.5c-0.4-1-0.6-2-0.6-3.1V60.5c0-1.1,0.2-2.2,0.6-3.2c0.4-1,0.9-2,1.7-2.8
		c0.7-0.8,1.5-1.5,2.5-2c1-0.6,2-0.9,3.1-1l27.2-2.9c1-0.1,1.5,0.3,1.5,1.3v9.3c0,0.4-0.1,0.7-0.4,1c-0.3,0.3-0.6,0.4-1,0.5
		l-23.3,1.9c-0.4,0-0.7,0.2-0.9,0.5s-0.3,0.6-0.3,1v5.8c0,0.4,0.1,0.7,0.3,0.9c0.2,0.2,0.5,0.4,0.9,0.3l17.5-1.1
		C198.3,69.9,199.5,70,200.6,70.4z M22.6,23.1c-0.3,0.3-0.4,0.6-0.4,1v25.1c0,0.4,0.1,0.7,0.4,1c0.3,0.2,0.6,0.3,1,0.3l22.7-1.9
		c0.4,0,0.7,0.1,0.9,0.3s0.4,0.6,0.4,1v9.6c0,0.4-0.1,0.7-0.4,1C47,60.8,46.7,61,46.3,61l-14.5,1.7L19.1,64l-1.4,0.2
		c-1.2,0.1-2.4,0-3.5-0.3s-2.1-0.9-2.9-1.6c-0.8-0.8-1.5-1.7-2-2.8s-0.7-2.3-0.7-3.6v-1.4v-5.8V30.1v-5.2v-6.1
		c0-1.3,0.2-2.5,0.7-3.6s1.1-2.1,2-2.9c0.8-0.8,1.8-1.5,2.9-2s2.3-0.7,3.5-0.7h1.4l27.2,0.2c0.4,0,0.7,0.1,0.9,0.4
		c0.2,0.3,0.4,0.6,0.4,1v9.6c0,0.4-0.1,0.7-0.4,1c-0.2,0.3-0.5,0.4-0.9,0.4l-22.7,0.5C23.2,22.7,22.9,22.8,22.6,23.1z M85.5,10h-7.4
		c-0.7,0-1.1,0.4-1.1,1.3v20.2c0,0.9-0.4,1.3-1.1,1.3l-11,0.6c-0.3,0-0.6-0.1-0.8-0.3c-0.2-0.2-0.3-0.6-0.3-0.9v-21
		c0-0.4-0.1-0.7-0.3-0.9C63.2,10,63,9.9,62.6,9.9l-8.3-0.1c-0.8,0-1.2,0.4-1.2,1.4v25.7c0,1.2,0.2,2.2,0.6,3.2
		c0.4,1,0.9,1.9,1.6,2.5c0.7,0.7,1.5,1.2,2.4,1.6c0.9,0.4,1.9,0.5,2.9,0.4l4.7-0.4v13.1c0,0.4,0.1,0.7,0.3,0.9
		c0.2,0.2,0.5,0.3,0.8,0.3l8.3-1c0.3,0,0.6-0.2,0.8-0.5c0.2-0.3,0.3-0.6,0.3-1V43.5l4.4-0.3c0.9-0.1,1.8-0.3,2.6-0.8
		c0.8-0.5,1.5-1.1,2.1-1.8s1-1.6,1.4-2.5c0.3-1,0.5-2,0.5-3V11.3c0-0.4-0.1-0.6-0.3-0.9C86,10.2,85.8,10,85.5,10z M101.1,20.9
		l15.5-0.3c0.2,0,0.5-0.1,0.6-0.3c0.2-0.2,0.3-0.5,0.3-0.8v-8c0-0.3-0.1-0.6-0.3-0.8c-0.2-0.2-0.4-0.3-0.6-0.3L98,10.1h-0.9
		c-0.8,0-1.6,0.2-2.4,0.6c-0.8,0.4-1.4,0.9-2,1.6c-0.6,0.7-1,1.5-1.3,2.4s-0.5,1.9-0.5,3v5V27v15.2V47v1.2c0,1,0.2,2,0.5,2.9
		s0.8,1.7,1.3,2.3c0.6,0.6,1.2,1.1,2,1.4c0.7,0.3,1.5,0.4,2.4,0.3L98,55l8.6-1l10-1.1c0.2,0,0.5-0.2,0.6-0.4
		c0.2-0.2,0.3-0.5,0.3-0.8v-8c0-0.3-0.1-0.6-0.3-0.8c-0.2-0.2-0.4-0.3-0.6-0.3l-15.5,1.3c-0.3,0-0.5-0.1-0.7-0.3s-0.3-0.5-0.3-0.8
		V22.1c0-0.3,0.1-0.6,0.3-0.8C100.6,21.1,100.8,20.9,101.1,20.9z M130.9,41.2c-0.2,0-0.4-0.1-0.6-0.2c-0.2-0.2-0.2-0.4-0.2-0.7V11.5
		c0-0.7-0.3-1.1-0.8-1.1h-6c-0.6,0-0.8,0.4-0.8,1.1V51c0,0.8,0.3,1.1,0.8,1l18.2-2.1c0.2,0,0.4-0.1,0.5-0.4c0.1-0.2,0.2-0.5,0.2-0.8
		v-7.4c0-0.3-0.1-0.5-0.2-0.7c-0.1-0.2-0.3-0.3-0.5-0.3L130.9,41.2z M165.5,16.8v24.3c0,0.8-0.1,1.6-0.3,2.4
		c-0.2,0.8-0.5,1.5-0.9,2.1s-0.8,1.1-1.3,1.5s-1,0.6-1.6,0.7l-12.9,1.5c-0.6,0.1-1.2,0-1.7-0.3c-0.6-0.3-1-0.7-1.5-1.2
		c-0.4-0.5-0.7-1.2-1-2c-0.2-0.8-0.4-1.6-0.4-2.5V17c0-0.9,0.1-1.7,0.4-2.5c0.2-0.8,0.6-1.5,1-2.1s0.9-1,1.5-1.4
		c0.6-0.3,1.1-0.5,1.7-0.5l12.9,0.1c0.6,0,1.1,0.2,1.6,0.5s0.9,0.8,1.3,1.3c0.4,0.5,0.6,1.2,0.9,1.9
		C165.4,15.1,165.5,15.9,165.5,16.8z M159.3,19.7l-8.6,0.2v19.7l8.6-0.7V19.7z M184,10.8l-14.2-0.1c-0.4,0-0.6,0.3-0.6,1v34.1
		c0,0.7,0.2,1,0.6,0.9l4.5-0.5c0.4,0,0.6-0.4,0.6-1v-25c0-0.3,0.1-0.5,0.2-0.7c0.1-0.2,0.3-0.3,0.4-0.3l6.2-0.1
		c0.2,0,0.3,0.1,0.4,0.2c0.1,0.2,0.2,0.4,0.2,0.6v24.3c0,0.3,0.1,0.5,0.2,0.6c0.1,0.2,0.2,0.2,0.4,0.2l4.1-0.5
		c0.2,0,0.3-0.1,0.4-0.3c0.1-0.2,0.2-0.4,0.2-0.7v-27c0-0.8-0.1-1.5-0.3-2.2s-0.4-1.3-0.7-1.8s-0.7-0.9-1.1-1.2
		C184.9,11,184.4,10.8,184,10.8z M195.5,18.5l8.9-0.2c0.1,0,0.3-0.1,0.3-0.2c0.1-0.2,0.1-0.3,0.1-0.6v-5.7c0-0.2,0-0.4-0.1-0.6
		c-0.1-0.2-0.2-0.3-0.3-0.3l-10.7-0.1c-0.4,0-0.9,0.1-1.3,0.4c-0.4,0.3-0.8,0.7-1.1,1.2s-0.5,1.1-0.7,1.8s-0.3,1.4-0.3,2.2v22.3
		c0,0.8,0.1,1.5,0.3,2.1c0.2,0.7,0.4,1.2,0.7,1.7s0.7,0.8,1.1,1.1c0.4,0.2,0.8,0.3,1.3,0.3l10.7-1.2c0.1,0,0.3-0.1,0.3-0.3
		c0.1-0.2,0.1-0.4,0.1-0.6v-5.7c0-0.2,0-0.4-0.1-0.6c-0.1-0.2-0.2-0.2-0.3-0.2l-8.9,0.8c-0.1,0-0.1-0.1-0.1-0.2v-5.1
		c0-0.2,0-0.2,0.1-0.2l7.6-0.5c0.3,0,0.5-0.3,0.5-0.9v-4.5c0-0.2,0-0.4-0.1-0.6s-0.2-0.2-0.4-0.2l-7.6,0.3c-0.1,0-0.1-0.1-0.1-0.2
		v-5.1C195.4,18.6,195.5,18.5,195.5,18.5z"/>
	<g>
		<path class="st1" d="M87.1,166.6c0-0.9,0.1-1.8,0.2-2.7H43.1c-0.8,0-1.4,0.6-1.4,1.4c0,0.8,0.6,1.4,1.4,1.4L87.1,166.6
			C87.1,166.7,87.1,166.6,87.1,166.6z"/>
		<path class="st1" d="M87.7,171.3H54.8c-0.8,0-1.4,0.6-1.4,1.4c0,0.8,0.6,1.4,1.4,1.4h33.9C88.2,173.2,87.9,172.3,87.7,171.3z"/>
		<path class="st1" d="M90,156.5H34.1c-0.7,0-1.4,0.5-1.5,1.2c-0.2,0.9,0.5,1.7,1.4,1.7h54.5l0,0C89,158.3,89.4,157.4,90,156.5
			L90,156.5z"/>
		<path class="st1" d="M169.6,163.9H125c0.1,0.9,0.2,1.8,0.2,2.7v0.1h44.4c0.8,0,1.4-0.6,1.4-1.4C171,164.5,170.3,163.9,169.6,163.9
			z"/>
		<path class="st1" d="M179.5,156.5h-57.3c0.6,0.9,1.1,1.8,1.5,2.8h55.8c0.8,0,1.4-0.6,1.4-1.4C180.9,157.1,180.3,156.5,179.5,156.5
			z"/>
		<path class="st1" d="M157.9,171.3h-33.3c-0.2,1-0.6,1.9-1,2.8h34.3c0.8,0,1.4-0.6,1.4-1.4C159.3,171.9,158.7,171.3,157.9,171.3z"
			/>
	</g>
	<path class="st2" d="M113.9,154.4c2.4-1.8,5.3-2.8,8.5-2.9c-3.1-1.7-6.7-2.6-10.6-2.6c-10.7,0-19.5,7.2-20.4,16.5l0,0
		c0,0.5-0.1,0.9-0.1,1.4c0,5.1,2.6,9.6,6.6,12.3c-2.4,1.7-5.3,2.8-8.4,2.8c3.1,1.7,6.7,2.6,10.6,2.6c8.4,0,15.6-4.5,18.8-10.8
		c1.1-2.1,1.7-4.4,1.7-6.9C120.7,161.6,118,157.1,113.9,154.4z"/>
	<g>
		<g>
			<defs>
				<path id="SVGID_1_" d="M24.2,71.2c-0.2-0.7-0.4-1.2-0.8-1.7c-0.3-0.5-0.7-0.8-1.1-1.1c-0.4-0.3-0.9-0.4-1.4-0.3l-10.3,1.1
					c-0.4,0-0.9,0.2-1.3,0.6c-0.4,0.3-0.7,0.7-1,1.2s-0.5,1.1-0.7,1.7c-0.2,0.7-0.2,1.4-0.2,2.1v25.5c0,0.6,0.2,0.9,0.5,0.9h3.8
					c0.4,0,0.5-0.3,0.5-0.9v-8.2c0-0.2,0.1-0.5,0.2-0.6c0.1-0.2,0.2-0.3,0.4-0.3l5.7-0.2c0.2,0,0.3,0.1,0.4,0.2
					c0.1,0.2,0.1,0.4,0.1,0.6v8.4c0,0.3,0.1,0.5,0.2,0.6c0.1,0.2,0.2,0.3,0.4,0.3h4.2c0.2,0,0.3-0.1,0.4-0.3
					c0.1-0.2,0.2-0.4,0.2-0.6v-27C24.5,72.6,24.4,71.9,24.2,71.2z M19.2,84l-6.8,0.4v-8.1l6.8-0.6V84z M45.7,66
					c0.5,0.3,0.9,0.7,1.3,1.1c0.4,0.5,0.7,1.1,0.9,1.8c0.2,0.7,0.3,1.5,0.3,2.3v29.1c0,0.3-0.1,0.5-0.2,0.7
					c-0.1,0.2-0.3,0.3-0.5,0.3h-4.9c-0.2,0-0.3-0.1-0.4-0.3c-0.1-0.2-0.2-0.4-0.2-0.7V75.4c0-0.3-0.1-0.5-0.2-0.6
					c-0.1-0.2-0.3-0.2-0.5-0.2l-6.6,0.5c-0.2,0-0.3,0.1-0.4,0.3c-0.1,0.2-0.2,0.4-0.2,0.7v24.3c0,0.6-0.2,0.9-0.6,0.9h-4.4
					c-0.4,0-0.6-0.3-0.6-0.9V68.3c0-0.6,0.2-0.9,0.6-1l15-1.6C44.7,65.6,45.2,65.7,45.7,66z M75.5,66.2c-0.3-0.8-0.6-1.4-1-2
					c-0.4-0.5-0.9-0.9-1.5-1.2s-1.2-0.4-1.9-0.3l-13.8,1.5c-0.6,0.1-1.2,0.3-1.7,0.7c-0.5,0.4-1,0.9-1.4,1.5s-0.7,1.3-0.9,2
					C53.1,69.2,53,70,53,70.8v29.5c0,0.7,0.2,1,0.7,1h5.2c0.5,0,0.7-0.3,0.7-1v-9.5c0-0.3,0.1-0.5,0.2-0.7c0.1-0.2,0.3-0.3,0.5-0.3
					l7.7-0.3c0.2,0,0.4,0.1,0.5,0.3c0.1,0.2,0.2,0.4,0.2,0.7v9.8c0,0.3,0.1,0.5,0.2,0.7s0.3,0.3,0.5,0.3h5.7c0.2,0,0.4-0.1,0.6-0.3
					c0.2-0.2,0.2-0.5,0.2-0.8V68.7C75.9,67.9,75.7,67,75.5,66.2z M68.6,81.2l-9.2,0.5v-9.4l9.2-0.8V81.2z M105.8,59.3
					c0.2,0.2,0.3,0.5,0.3,0.8v21.6c0,1-0.2,1.9-0.5,2.8s-0.7,1.6-1.2,2.3c-0.5,0.6-1.1,1.2-1.8,1.6c-0.7,0.4-1.4,0.6-2.2,0.6
					l-3.6,0.1v11.1c0,0.3-0.1,0.6-0.3,0.8c-0.2,0.2-0.4,0.3-0.6,0.3h-6.4c-0.2,0-0.4-0.1-0.6-0.3c-0.2-0.2-0.2-0.5-0.2-0.8V89.3
					l-3.4,0.1c-0.7,0-1.4-0.1-2-0.5c-0.6-0.3-1.2-0.8-1.6-1.4c-0.5-0.6-0.8-1.3-1.1-2.1c-0.3-0.8-0.4-1.7-0.4-2.6v-20
					c0-0.7,0.3-1.1,0.8-1.2l5.8-0.6c0.2,0,0.4,0.1,0.6,0.3s0.2,0.4,0.2,0.8v17.2c0,0.3,0.1,0.6,0.2,0.8c0.1,0.2,0.3,0.3,0.6,0.3
					l8.5-0.5c0.6,0,0.9-0.4,0.9-1.2V61c0-0.7,0.3-1.2,0.9-1.2l6.3-0.7C105.4,59,105.6,59.1,105.8,59.3z M142.1,59.8
					c-0.4-0.9-0.9-1.7-1.5-2.3s-1.3-1.1-2.1-1.4c-0.8-0.3-1.7-0.4-2.6-0.3l-19.2,2.1c-0.8,0.1-1.6,0.4-2.3,0.8
					c-0.7,0.5-1.4,1.1-1.9,1.7c-0.5,0.7-1,1.5-1.3,2.4s-0.5,1.9-0.5,2.8v34.5c0,0.8,0.3,1.2,1,1.2h7.1c0.7,0,1-0.4,1-1.2V88.9
					c0-0.3,0.1-0.6,0.3-0.9c0.2-0.2,0.4-0.4,0.7-0.4l10.7-0.4c0.3,0,0.5,0.1,0.7,0.3c0.2,0.2,0.3,0.5,0.3,0.9V100
					c0,0.3,0.1,0.6,0.3,0.9c0.2,0.2,0.5,0.4,0.8,0.4h8c0.3,0,0.6-0.1,0.8-0.4c0.2-0.2,0.3-0.5,0.3-0.9V62.7
					C142.7,61.7,142.5,60.7,142.1,59.8z M132.5,77.6l-12.8,0.7v-11l12.8-1.1V77.6z M150,65.7c-0.2-0.2-0.3-0.5-0.3-0.8v-9.4
					c0-0.9,0.4-1.3,1.2-1.4l8.6-0.9c0.8-0.1,1.2,0.3,1.2,1.2v8V64c0,0.4-0.1,0.8-0.2,1.2c-0.1,0.4-0.3,0.8-0.5,1.2l-2.5,4.4
					c-0.2,0.3-0.5,0.5-0.8,0.8c-0.3,0.2-0.7,0.4-1,0.4l-4.3,0.3c-0.3,0-0.5-0.1-0.6-0.3c-0.1-0.2-0.1-0.4,0.2-0.7l2.5-4.3
					c0.2-0.3,0.3-0.6,0.3-0.8c0-0.2-0.1-0.3-0.2-0.3l-2.6,0.2C150.5,66,150.2,65.9,150,65.7z M200.6,70.4c1.1,0.4,2,1,2.8,1.7
					c0.8,0.8,1.4,1.7,1.9,2.7s0.7,2.2,0.7,3.4v14.3c0,1.2-0.2,2.4-0.7,3.5s-1.1,2-1.9,2.9c-0.8,0.8-1.7,1.4-2.8,1.9
					s-2.2,0.7-3.4,0.7h-28.1c-0.8,0-1.3-0.4-1.3-1.3v-8.5c0-0.4,0.1-0.7,0.4-1c0.2-0.3,0.5-0.4,0.9-0.4l23.7-0.6
					c0.4,0,0.7-0.1,1-0.4s0.4-0.6,0.4-1v-6.2c0-0.4-0.1-0.7-0.4-1c-0.3-0.3-0.6-0.4-1-0.4l-17.1,0.7c-1.1,0-2.1-0.1-3.1-0.5
					s-1.8-0.9-2.5-1.7c-0.7-0.7-1.3-1.6-1.7-2.5c-0.4-1-0.6-2-0.6-3.1V60.5c0-1.1,0.2-2.2,0.6-3.2c0.4-1,0.9-2,1.7-2.8
					c0.7-0.8,1.5-1.5,2.5-2c1-0.6,2-0.9,3.1-1l27.2-2.9c1-0.1,1.5,0.3,1.5,1.3v9.3c0,0.4-0.1,0.7-0.4,1c-0.3,0.3-0.6,0.4-1,0.5
					l-23.3,1.9c-0.4,0-0.7,0.2-0.9,0.5s-0.3,0.6-0.3,1v5.8c0,0.4,0.1,0.7,0.3,0.9c0.2,0.2,0.5,0.4,0.9,0.3l17.5-1.1
					C198.3,69.9,199.5,70,200.6,70.4z M22.6,23.1c-0.3,0.3-0.4,0.6-0.4,1v25.1c0,0.4,0.1,0.7,0.4,1c0.3,0.2,0.6,0.3,1,0.3l22.7-1.9
					c0.4,0,0.7,0.1,0.9,0.3s0.4,0.6,0.4,1v9.6c0,0.4-0.1,0.7-0.4,1C47,60.8,46.7,61,46.3,61l-14.5,1.7L19.1,64l-1.4,0.2
					c-1.2,0.1-2.4,0-3.5-0.3s-2.1-0.9-2.9-1.6c-0.8-0.8-1.5-1.7-2-2.8s-0.7-2.3-0.7-3.6v-1.4v-5.8V30.1v-5.2v-6.1
					c0-1.3,0.2-2.5,0.7-3.6s1.1-2.1,2-2.9c0.8-0.8,1.8-1.5,2.9-2s2.3-0.7,3.5-0.7h1.4l27.2,0.2c0.4,0,0.7,0.1,0.9,0.4
					c0.2,0.3,0.4,0.6,0.4,1v9.6c0,0.4-0.1,0.7-0.4,1c-0.2,0.3-0.5,0.4-0.9,0.4l-22.7,0.5C23.2,22.7,22.9,22.8,22.6,23.1z M85.5,10
					h-7.4c-0.7,0-1.1,0.4-1.1,1.3v20.2c0,0.9-0.4,1.3-1.1,1.3l-11,0.6c-0.3,0-0.6-0.1-0.8-0.3c-0.2-0.2-0.3-0.6-0.3-0.9v-21
					c0-0.4-0.1-0.7-0.3-0.9C63.2,10,63,9.9,62.6,9.9l-8.3-0.1c-0.8,0-1.2,0.4-1.2,1.4v25.7c0,1.2,0.2,2.2,0.6,3.2
					c0.4,1,0.9,1.9,1.6,2.5c0.7,0.7,1.5,1.2,2.4,1.6c0.9,0.4,1.9,0.5,2.9,0.4l4.7-0.4v13.1c0,0.4,0.1,0.7,0.3,0.9
					c0.2,0.2,0.5,0.3,0.8,0.3l8.3-1c0.3,0,0.6-0.2,0.8-0.5c0.2-0.3,0.3-0.6,0.3-1V43.5l4.4-0.3c0.9-0.1,1.8-0.3,2.6-0.8
					c0.8-0.5,1.5-1.1,2.1-1.8s1-1.6,1.4-2.5c0.3-1,0.5-2,0.5-3V11.3c0-0.4-0.1-0.6-0.3-0.9C86,10.2,85.8,10,85.5,10z M101.1,20.9
					l15.5-0.3c0.2,0,0.5-0.1,0.6-0.3c0.2-0.2,0.3-0.5,0.3-0.8v-8c0-0.3-0.1-0.6-0.3-0.8c-0.2-0.2-0.4-0.3-0.6-0.3L98,10.1h-0.9
					c-0.8,0-1.6,0.2-2.4,0.6c-0.8,0.4-1.4,0.9-2,1.6c-0.6,0.7-1,1.5-1.3,2.4s-0.5,1.9-0.5,3v5V27v15.2V47v1.2c0,1,0.2,2,0.5,2.9
					s0.8,1.7,1.3,2.3c0.6,0.6,1.2,1.1,2,1.4c0.7,0.3,1.5,0.4,2.4,0.3L98,55l8.6-1l10-1.1c0.2,0,0.5-0.2,0.6-0.4
					c0.2-0.2,0.3-0.5,0.3-0.8v-8c0-0.3-0.1-0.6-0.3-0.8c-0.2-0.2-0.4-0.3-0.6-0.3l-15.5,1.3c-0.3,0-0.5-0.1-0.7-0.3
					s-0.3-0.5-0.3-0.8V22.1c0-0.3,0.1-0.6,0.3-0.8C100.6,21.1,100.8,20.9,101.1,20.9z M130.9,41.2c-0.2,0-0.4-0.1-0.6-0.2
					c-0.2-0.2-0.2-0.4-0.2-0.7V11.5c0-0.7-0.3-1.1-0.8-1.1h-6c-0.6,0-0.8,0.4-0.8,1.1V51c0,0.8,0.3,1.1,0.8,1l18.2-2.1
					c0.2,0,0.4-0.1,0.5-0.4c0.1-0.2,0.2-0.5,0.2-0.8v-7.4c0-0.3-0.1-0.5-0.2-0.7c-0.1-0.2-0.3-0.3-0.5-0.3L130.9,41.2z M165.5,16.8
					v24.3c0,0.8-0.1,1.6-0.3,2.4c-0.2,0.8-0.5,1.5-0.9,2.1s-0.8,1.1-1.3,1.5s-1,0.6-1.6,0.7l-12.9,1.5c-0.6,0.1-1.2,0-1.7-0.3
					c-0.6-0.3-1-0.7-1.5-1.2c-0.4-0.5-0.7-1.2-1-2c-0.2-0.8-0.4-1.6-0.4-2.5V17c0-0.9,0.1-1.7,0.4-2.5c0.2-0.8,0.6-1.5,1-2.1
					s0.9-1,1.5-1.4c0.6-0.3,1.1-0.5,1.7-0.5l12.9,0.1c0.6,0,1.1,0.2,1.6,0.5s0.9,0.8,1.3,1.3c0.4,0.5,0.6,1.2,0.9,1.9
					C165.4,15.1,165.5,15.9,165.5,16.8z M159.3,19.7l-8.6,0.2v19.7l8.6-0.7V19.7z M184,10.8l-14.2-0.1c-0.4,0-0.6,0.3-0.6,1v34.1
					c0,0.7,0.2,1,0.6,0.9l4.5-0.5c0.4,0,0.6-0.4,0.6-1v-25c0-0.3,0.1-0.5,0.2-0.7c0.1-0.2,0.3-0.3,0.4-0.3l6.2-0.1
					c0.2,0,0.3,0.1,0.4,0.2c0.1,0.2,0.2,0.4,0.2,0.6v24.3c0,0.3,0.1,0.5,0.2,0.6c0.1,0.2,0.2,0.2,0.4,0.2l4.1-0.5
					c0.2,0,0.3-0.1,0.4-0.3c0.1-0.2,0.2-0.4,0.2-0.7v-27c0-0.8-0.1-1.5-0.3-2.2s-0.4-1.3-0.7-1.8s-0.7-0.9-1.1-1.2
					C184.9,11,184.4,10.8,184,10.8z M195.5,18.5l8.9-0.2c0.1,0,0.3-0.1,0.3-0.2c0.1-0.2,0.1-0.3,0.1-0.6v-5.7c0-0.2,0-0.4-0.1-0.6
					c-0.1-0.2-0.2-0.3-0.3-0.3l-10.7-0.1c-0.4,0-0.9,0.1-1.3,0.4c-0.4,0.3-0.8,0.7-1.1,1.2s-0.5,1.1-0.7,1.8s-0.3,1.4-0.3,2.2v22.3
					c0,0.8,0.1,1.5,0.3,2.1c0.2,0.7,0.4,1.2,0.7,1.7s0.7,0.8,1.1,1.1c0.4,0.2,0.8,0.3,1.3,0.3l10.7-1.2c0.1,0,0.3-0.1,0.3-0.3
					c0.1-0.2,0.1-0.4,0.1-0.6v-5.7c0-0.2,0-0.4-0.1-0.6c-0.1-0.2-0.2-0.2-0.3-0.2l-8.9,0.8c-0.1,0-0.1-0.1-0.1-0.2v-5.1
					c0-0.2,0-0.2,0.1-0.2l7.6-0.5c0.3,0,0.5-0.3,0.5-0.9v-4.5c0-0.2,0-0.4-0.1-0.6s-0.2-0.2-0.4-0.2l-7.6,0.3
					c-0.1,0-0.1-0.1-0.1-0.2v-5.1C195.4,18.6,195.5,18.5,195.5,18.5z"/>
			</defs>
			<clipPath id="SVGID_2_">
				<use xlink:href="#SVGID_1_"  style="overflow:visible;"/>
			</clipPath>
			<g id="grunge-copier.tiff_1_" class="st3">
			</g>
		</g>
	</g>
	<path id="ATX_4_" class="st4" d="M100.3,170.2c-0.1-0.3-0.2-0.7-0.3-1c-0.1-0.4-0.1-0.4-0.5-0.4h-2c-0.3,0-0.3,0-0.4,0.3
		s-0.2,0.6-0.3,1c0,0.1,0,0.1-0.1,0.2c0,0.1-0.1,0.1-0.2,0.1h-0.3c-0.3,0-0.6,0-0.9,0c-0.2,0-0.2,0-0.2-0.3c0.1-0.4,0.2-0.7,0.4-1.1
		c0.7-1.9,1.3-3.9,2-5.8c0.1-0.4,0.1-0.4,0.5-0.4h0.6h0.7c0.2,0,0.2,0.1,0.3,0.2c0.2,0.5,0.4,1.1,0.5,1.6c0.6,1.8,1.2,3.5,1.8,5.3
		c0,0.1,0.1,0.2,0.1,0.3s0,0.1-0.1,0.1h-0.1c-0.4,0-0.7,0-1.1,0C100.5,170.4,100.4,170.3,100.3,170.2z M98.9,167.3
		c0.1,0,0.2,0,0.3,0c0.1,0,0.1-0.1,0.1-0.2V167c-0.2-0.6-0.4-1.1-0.6-1.7c0-0.1,0-0.1-0.1-0.2h-0.1c0,0.1,0,0.1-0.1,0.2
		c-0.1,0.3-0.2,0.6-0.3,0.9l-0.3,0.9c0,0.1,0,0.2,0.1,0.2c0.2,0,0.4,0,0.6,0l0,0L98.9,167.3L98.9,167.3z M104.6,170.4
		c-0.2,0-0.2,0-0.2-0.2c0-0.1,0-0.2,0-0.3v-5c0-0.1,0-0.2,0-0.3s0-0.1-0.1-0.1s-0.2,0-0.3,0h-1.3c-0.3,0-0.3,0-0.3-0.3s0-0.6,0-0.9
		c0-0.2,0-0.2,0.2-0.2h0.2c1.6,0,3.2,0,4.7,0c0.4,0,0.4,0,0.4,0.4c0,0.3,0,0.5,0,0.8c0,0.2,0,0.2-0.2,0.2c-0.3,0-0.6,0-0.9,0
		c-0.2,0-0.4,0-0.6,0s-0.2,0-0.2,0.2c0,0.1,0,0.2,0,0.3v2.5c0,0.9,0,1.7,0,2.6c0,0.4,0,0.4-0.4,0.4
		C105.2,170.4,104.9,170.4,104.6,170.4z M113.8,170.2c-0.3-0.4-0.6-0.8-0.9-1.2c-0.2-0.3-0.4-0.5-0.6-0.8l-0.1-0.1h-0.1
		c-0.1,0.1-0.1,0.1-0.2,0.2c-0.4,0.6-0.9,1.2-1.3,1.7l-0.1,0.2c-0.1,0.1-0.2,0.1-0.3,0.1h-1.5h-0.1l-0.1-0.1c0-0.1,0.1-0.2,0.2-0.2
		c0.7-1,1.5-2,2.2-3c0.3-0.5,0.3-0.4,0-0.8c-0.7-1-1.5-2-2.2-3c-0.1-0.1-0.2-0.2-0.1-0.3s0.2,0,0.3,0h1.3c0.2,0,0.3,0.1,0.4,0.2
		c0.4,0.6,0.9,1.2,1.4,1.8c0.1,0.1,0.1,0.2,0.2,0.2c0,0.1,0.1,0.1,0.2,0s0.1-0.1,0.2-0.2l1.3-1.7l0.1-0.1c0.1-0.2,0.3-0.2,0.5-0.2
		c0.4,0,0.9,0,1.3,0c0.1,0,0.1,0,0.2,0l0.1,0.1c0,0.1-0.1,0.2-0.2,0.2l-2.2,3c-0.1,0.1-0.1,0.2-0.2,0.3c0,0.1,0,0.1,0,0.2l0.1,0.2
		c0.8,1,1.5,2,2.3,3.1c0.1,0.1,0.1,0.2,0.2,0.2c0,0.1,0,0.1-0.1,0.1c-0.2,0-0.4,0-0.6,0c-0.1,0-0.2,0-0.3,0c-0.2,0-0.5,0-0.7,0
		C114,170.4,113.9,170.3,113.8,170.2z"/>
	<path id="ATX_3_" class="st5" d="M101,169.5c-0.1-0.3-0.2-0.7-0.3-1c-0.1-0.4-0.1-0.4-0.5-0.4h-2c-0.3,0-0.3,0-0.4,0.3
		s-0.2,0.6-0.3,1c0,0.1,0,0.1-0.1,0.2c0,0.1-0.1,0.1-0.2,0.1h-0.3c-0.3,0-0.6,0-0.9,0c-0.2,0-0.2,0-0.2-0.3c0.1-0.4,0.2-0.7,0.4-1.1
		c0.7-1.9,1.3-3.9,2-5.8c0.1-0.4,0.1-0.4,0.5-0.4h0.6h0.7c0.2,0,0.2,0.1,0.3,0.2c0.2,0.5,0.4,1.1,0.5,1.6c0.6,1.8,1.2,3.5,1.8,5.3
		c0,0.1,0.1,0.2,0.1,0.3s0,0.1-0.1,0.1h-0.1c-0.4,0-0.7,0-1.1,0C101.2,169.7,101.1,169.6,101,169.5z M99.6,166.5c0.1,0,0.2,0,0.3,0
		c0.1,0,0.1-0.1,0.1-0.2v-0.1c-0.2-0.6-0.4-1.1-0.6-1.7c0-0.1,0-0.1-0.1-0.2h-0.1c0,0.1,0,0.1-0.1,0.2c-0.1,0.3-0.2,0.6-0.3,0.9
		l-0.3,0.9c0,0.1,0,0.2,0.1,0.2c0.2,0,0.4,0,0.6,0l0,0L99.6,166.5L99.6,166.5z M105.4,169.7c-0.2,0-0.2,0-0.2-0.2c0-0.1,0-0.2,0-0.3
		v-5c0-0.1,0-0.2,0-0.3s0-0.1-0.1-0.1s-0.2,0-0.3,0h-1.3c-0.3,0-0.3,0-0.3-0.3s0-0.6,0-0.9c0-0.2,0-0.2,0.2-0.2h0.2
		c1.6,0,3.2,0,4.7,0c0.4,0,0.4,0,0.4,0.4c0,0.3,0,0.5,0,0.8c0,0.2,0,0.2-0.2,0.2c-0.3,0-0.6,0-0.9,0c-0.2,0-0.4,0-0.6,0
		s-0.2,0-0.2,0.2c0,0.1,0,0.2,0,0.3v2.5c0,0.9,0,1.7,0,2.6c0,0.4,0,0.4-0.4,0.4C105.9,169.7,105.7,169.7,105.4,169.7z M114.5,169.5
		c-0.3-0.4-0.6-0.8-0.9-1.2c-0.2-0.3-0.4-0.5-0.6-0.8l-0.1-0.1h-0.1c-0.1,0.1-0.1,0.1-0.2,0.2c-0.4,0.6-0.9,1.2-1.3,1.7l-0.1,0.2
		c-0.1,0.1-0.2,0.1-0.3,0.1h-1.5h-0.1l-0.1-0.1c0-0.1,0.1-0.2,0.2-0.2c0.7-1,1.5-2,2.2-3c0.3-0.5,0.3-0.4,0-0.8c-0.7-1-1.5-2-2.2-3
		c-0.1-0.1-0.2-0.2-0.1-0.3s0.2,0,0.3,0h1.3c0.2,0,0.3,0.1,0.4,0.2c0.4,0.6,0.9,1.2,1.4,1.8c0.1,0.1,0.1,0.2,0.2,0.2
		c0,0.1,0.1,0.1,0.2,0s0.1-0.1,0.2-0.2l1.3-1.7l0.1-0.1c0.1-0.2,0.3-0.2,0.5-0.2c0.4,0,0.9,0,1.3,0c0.1,0,0.1,0,0.2,0l0.1,0.1
		c0,0.1-0.1,0.2-0.2,0.2l-2.2,3c-0.1,0.1-0.1,0.2-0.2,0.3c0,0.1,0,0.1,0,0.2l0.1,0.2c0.8,1,1.5,2,2.3,3.1c0.1,0.1,0.1,0.2,0.2,0.2
		c0,0.1,0,0.1-0.1,0.1c-0.2,0-0.4,0-0.6,0c-0.1,0-0.2,0-0.3,0c-0.2,0-0.5,0-0.7,0C114.7,169.7,114.6,169.6,114.5,169.5z"/>
	<path id="Rectangle_4_" class="st6" d="M204.1,143.5H9.4c-1.2,0-2.2-1-2.2-2.2v-32.7c0-1.2,1-2.2,2.2-2.2h194.7
		c1.2,0,2.2,1,2.2,2.2v32.7C206.3,142.5,205.3,143.5,204.1,143.5z"/>
	<path id="Tex-Mex_8_" class="st7" d="M35.2,119.2c-1.8,0.1-3.2-0.6-3.5-1.7c-0.1-0.3,0-0.4,0.3-0.4c2.7,0.2,7.8-0.9,9.6-0.9
		c1.3,0,2.5,0.4,2.9,1.6c0.1,0.2,0,0.5-0.4,0.5c-1.5-0.2-3.4,0.2-5.2,0.5c0,0.7-0.2,1.7-1,3.3c-1.8,3.3-4.4,7.6-6.8,13.3
		c-0.1,0.3-0.3,0.3-0.5,0.1c-0.4-0.4-0.8-1.3-0.4-2.8c0.7-2.5,4-9.2,6.9-13.5C36.3,119.1,35.7,119.2,35.2,119.2z M47.5,123.5
		c-0.1-0.4,0.2-0.5,0.6-0.4c1,0.2,1.7,1,2,3c0.1,0.8,0.2,1.7,0.2,2.6c1.9-1.9,3.6-4,4.7-5.5c0.2-0.3,0.7-0.4,0.6,0.2
		c-0.1,0.7-0.7,1.7-1.3,2.6s-2.1,2.6-3.9,4.3c0.1,1,0.2,2,0.2,2.6c0.2,1.2,0.5,1.7,1,1.7c1.1,0,2.6-2.2,3.4-4.1
		c0.2-0.3,0.5-0.2,0.6,0c0.1,0.5,0.1,1.2-0.4,2.1c-1.1,2-2.7,3-4.2,3c-1.6,0-2.5-1-2.6-3.5c0,0,0,0,0-0.1c-2.3,1.8-4.9,3.3-7.5,3.5
		c-4.1,0.2-5.6-3.7-3.6-7.7c1.9-3.8,5.1-5.5,6.6-4.6c0.7,0.4,1.3,0.9,1.8,1.5c0.5,0.8,0.2,2.6-1,4.1c-1.5,1.9-3.5,2.7-5.6,0.9
		c-1,2.9-0.2,5,1.9,4.8c2.2-0.2,4.8-1.8,7.2-4C48.1,128.3,47.8,125,47.5,123.5z M43,127.6c1-1.3,1.6-2.9,1.2-3.2
		c-0.7-0.6-3.2,1.3-4.6,4.2c-0.1,0.2-0.2,0.4-0.2,0.5C40.9,130.1,42.1,128.8,43,127.6z M55.1,127.4c-0.1-0.3,0-0.5,0.3-0.4
		c1.7,0.1,3.9-0.2,5.3-0.2c1.5,0,2.1,0.7,2.3,1.6c0.1,0.3,0,0.5-0.3,0.4c-2.2-0.2-4,0.3-5.4,0.3C55.9,129,55.3,128.3,55.1,127.4z
		 M64,135.5c-0.1,0.3-0.3,0.3-0.5,0.1c-0.4-0.5-0.8-1.5-0.1-3.3c1.1-2.9,6.1-11.1,9.4-15.6c0.3-0.4,0.6-0.5,1-0.2
		c1.2,1,1.5,2.1,0.7,4.5c-1,2.9-2.1,6.5-3.3,10.8c3.3-5.5,7.8-10,11.2-15.3c0.3-0.4,0.5-0.5,0.9-0.1c1.2,1.3,0.9,2.9,0.1,4.5
		c-2.1,4-5.2,10.2-6.7,14.6c-0.1,0.3-0.2,0.3-0.5,0.1c-0.5-0.4-0.9-1.3-0.3-3.3c0.5-1.8,2.4-6.1,4.4-9.9c-3.5,4.2-7.1,8.9-9.3,13
		c-0.2,0.3-0.3,0.4-0.6,0.2c-1-0.7-1.5-1.8-1.2-3.7c0.3-1.7,1.3-6,2.6-10.1C69.2,125.9,65.8,131.4,64,135.5z M92.1,123.5
		c-0.1-0.4,0.2-0.5,0.6-0.4c1,0.2,1.7,1,2,3c0.1,0.8,0.2,1.7,0.2,2.6c1.9-1.9,3.6-4,4.7-5.5c0.2-0.3,0.7-0.4,0.6,0.2
		c-0.1,0.7-0.7,1.7-1.3,2.6c-0.6,0.9-2.1,2.6-3.9,4.3c0.1,1,0.2,2,0.2,2.6c0.2,1.2,0.5,1.7,1,1.7c1.1,0,2.6-2.2,3.4-4.1
		c0.2-0.3,0.5-0.2,0.6,0c0.1,0.5,0.1,1.2-0.4,2.1c-1.1,2-2.7,3-4.2,3c-1.6,0-2.5-1-2.6-3.5c0,0,0,0,0-0.1c-2.3,1.8-4.9,3.3-7.5,3.5
		c-4.1,0.2-5.6-3.7-3.6-7.7c1.9-3.8,5.1-5.5,6.6-4.6c0.7,0.4,1.3,0.9,1.8,1.5c0.5,0.8,0.2,2.6-1,4.1c-1.5,1.9-3.5,2.7-5.6,0.9
		c-1,2.9-0.2,5,1.9,4.8c2.2-0.2,4.8-1.8,7.2-4C92.8,128.3,92.5,125,92.1,123.5z M87.7,127.6c1-1.3,1.6-2.9,1.2-3.2
		c-0.7-0.6-3.2,1.3-4.6,4.2c-0.1,0.2-0.2,0.4-0.2,0.5C85.6,130.1,86.8,128.8,87.7,127.6z M118.6,128.9c0.8,2.1-1.2,4.4-2.5,5.3
		c-2.2,1.6-4.8,1.5-6.4,0.6c-1.4-0.7-2.6-2.6-2.6-5.2c-0.1-6.5,5.3-12.1,8.8-13.4c1.7-0.6,3.2-0.8,4.1,0.1c0.7,0.6,1.4,1.5,1.6,2.2
		c0.3,0.9,0.2,1.7-0.3,2.7s-0.9,2.1-1.2,3c-0.1,0.2-0.3,0.4-0.7,0.2c-0.7-0.5-1.2-1.4-0.7-2.9c0.5-1.6,1.6-3.4,0.9-4.1
		c-0.9-0.9-5.5,1.6-8.3,6.1c-2.7,4.5-2.4,9-0.9,10.2c2,1.6,5.2-0.5,7.5-5C118.2,128.5,118.5,128.5,118.6,128.9z M131.2,123.3
		c0.3-0.4,0.5-0.5,0.7-0.2c0.5,0.6,0.7,1.9,0,3.4c-0.7,1.4-2.2,3.7-2.9,5.3c-0.8,1.7-0.8,3,0.2,3c1.3-0.1,2.9-2.1,4-4.3
		c0.2-0.3,0.4-0.3,0.5,0s0.1,1-0.3,1.9c-0.8,1.7-2.7,3.4-4.4,3.3c-1.7-0.1-2.5-1.1-2.5-2.5c-1,1.3-2.4,2.4-3.8,2.4
		c-2.9,0-3.4-3.9-0.9-7.6c2.5-3.6,4.9-5,6.4-5c1.3,0,1.9,1,1.9,2.2C130.5,124.4,130.8,123.8,131.2,123.3z M128.7,124.5
		c-1-0.1-3.2,1.9-4.9,4.6c-1.6,2.6-2,5.3-0.8,5.4c1.3,0,2.9-1.9,4.4-4.6C129.3,126.5,129.6,124.6,128.7,124.5z M142,123.1
		c1,0.2,2,1.7,1.2,3.3c-0.6,1.3-2.1,3.6-2.9,5.2c-0.8,1.8-0.6,3.2,0.5,3.2c1.3-0.1,2.8-2.1,3.9-4.2c0.2-0.3,0.4-0.3,0.5,0
		c0.2,0.3,0.2,1-0.3,1.9c-0.8,1.7-2.8,3.3-4.5,3.3c-2.6,0-3.2-1.9-2.3-4.6c1-3,3.7-6.3,3.2-6.5c-0.3-0.1-2.1,0.7-4,2.9
		c-1.8,2-3.2,4.9-4.5,7.8c-0.1,0.3-0.3,0.4-0.6,0.1c-0.6-0.6-0.8-1.6-0.3-3.2c0.6-1.9,3-6.2,4.9-9c0.2-0.3,0.5-0.3,0.6,0
		c0.5,0.8,0.4,1.8,0.1,2.9C138.9,124.6,141,122.9,142,123.1z M146.1,122.4c-0.3-0.4-0.1-0.6,0.3-0.6c0.9,0,1.7,0,2.5-0.1
		c1-1.7,1.8-3.1,2.3-3.8c0.3-0.4,0.6-0.4,0.7,0c0.3,0.9,0.3,1.9-0.4,3.5c1.2,0,1.7,0.5,1.9,0.9s0.1,0.6-0.4,0.6
		c-0.7-0.1-1.6,0-2.4,0.1c-1.2,2.1-2.9,5-4.1,7.6c-1,2.2-0.7,4.1,0.6,4.2c1.4,0.1,3.1-2.1,4.3-4.4c0.2-0.4,0.5-0.4,0.6,0
		c0.2,0.5,0,1-0.3,1.7c-0.4,0.9-2.4,3.6-4.9,3.5c-2-0.1-3.6-2.3-2.2-5.9c0.6-1.5,1.9-4.1,3.3-6.5C147,123.2,146.3,122.7,146.1,122.4
		z M150.9,131.1c0.8-2.2,2.8-5.9,3.9-7.5c0.3-0.4,0.5-0.5,0.7-0.2c0.5,0.5,0.7,1.8,0,3.3c-0.6,1.3-1.9,3.4-2.6,5
		c-0.7,1.8-0.7,3,0.3,2.9c1.4-0.1,3.1-2.1,4-4.2c0.2-0.3,0.4-0.2,0.5,0c0.2,0.5,0.2,1.1-0.2,1.9c-0.9,1.9-2.9,3.2-4.6,3.2
		C150.6,135.6,150,133.6,150.9,131.1z M157.7,123.1c-0.4,0.4-1.3,0.3-1.7-0.5c-0.5-0.8-0.3-1.7,0.2-2.3c0.5-0.5,1.4-0.2,1.8,0.7
		C158.3,121.8,158.1,122.7,157.7,123.1z M166.4,123.1c1,0.2,2,1.7,1.2,3.3c-0.6,1.3-2.1,3.6-2.9,5.2c-0.8,1.8-0.6,3.2,0.5,3.2
		c1.3-0.1,2.8-2.1,3.9-4.2c0.2-0.3,0.4-0.3,0.5,0c0.2,0.3,0.2,1-0.3,1.9c-0.8,1.7-2.8,3.3-4.5,3.3c-2.6,0-3.2-1.9-2.3-4.6
		c1-3,3.7-6.3,3.2-6.5c-0.3-0.1-2.1,0.7-4,2.9c-1.8,2-3.2,4.9-4.5,7.8c-0.1,0.3-0.3,0.4-0.6,0.1c-0.6-0.6-0.8-1.6-0.3-3.2
		c0.6-1.9,3-6.2,4.9-9c0.2-0.3,0.5-0.3,0.6,0c0.5,0.8,0.4,1.8,0.1,2.9C163.3,124.6,165.4,122.9,166.4,123.1z M179.6,123.3
		c0.3-0.4,0.5-0.5,0.7-0.2c0.5,0.6,0.7,1.9,0,3.4c-0.7,1.4-2.2,3.7-2.9,5.3c-0.8,1.7-0.8,3,0.2,3c1.3-0.1,2.9-2.1,4-4.3
		c0.2-0.3,0.4-0.3,0.5,0s0.1,1-0.3,1.9c-0.8,1.7-2.7,3.4-4.4,3.3c-1.7-0.1-2.5-1.1-2.5-2.5c-1,1.3-2.4,2.4-3.8,2.4
		c-2.9,0-3.4-3.9-0.9-7.6c2.5-3.6,4.9-5,6.4-5c1.3,0,1.9,1,1.9,2.2C178.9,124.4,179.3,123.8,179.6,123.3z M177.2,124.5
		c-1-0.1-3.2,1.9-4.9,4.6c-1.6,2.6-2,5.3-0.8,5.4c1.3,0,2.9-1.9,4.4-4.6C177.8,126.5,178.1,124.6,177.2,124.5z"/>
	<path id="Tex-Mex_2_" class="st8" d="M36.1,118.6c-1.8,0.1-3.2-0.6-3.5-1.7c-0.1-0.3,0-0.4,0.3-0.4c2.7,0.2,7.8-0.9,9.6-0.9
		c1.3,0,2.5,0.4,2.9,1.6c0.1,0.2,0,0.5-0.4,0.5c-1.5-0.2-3.4,0.2-5.2,0.5c0,0.7-0.2,1.7-1,3.3c-1.8,3.3-4.4,7.6-6.8,13.3
		c-0.1,0.3-0.3,0.3-0.5,0.1c-0.4-0.4-0.8-1.3-0.4-2.8c0.7-2.5,4-9.2,6.9-13.5C37.3,118.5,36.7,118.6,36.1,118.6z M48.4,122.9
		c-0.1-0.4,0.2-0.5,0.6-0.4c1,0.2,1.7,1,2,3c0.1,0.8,0.2,1.7,0.2,2.6c1.9-1.9,3.6-4,4.7-5.5c0.2-0.3,0.7-0.4,0.6,0.2
		c-0.1,0.7-0.7,1.7-1.3,2.6s-2.1,2.6-3.9,4.3c0.1,1,0.2,2,0.2,2.6c0.2,1.2,0.5,1.7,1,1.7c1.1,0,2.6-2.2,3.4-4.1
		c0.2-0.3,0.5-0.2,0.6,0c0.1,0.5,0.1,1.2-0.4,2.1c-1.1,2-2.7,3-4.2,3c-1.6,0-2.5-1-2.6-3.5c0,0,0,0,0-0.1c-2.3,1.8-4.9,3.3-7.5,3.5
		c-4.1,0.2-5.6-3.7-3.6-7.7c1.9-3.8,5.1-5.5,6.6-4.6c0.7,0.4,1.3,0.9,1.8,1.5c0.5,0.8,0.2,2.6-1,4.1c-1.5,1.9-3.5,2.7-5.6,0.9
		c-1,2.9-0.2,5,1.9,4.8c2.2-0.2,4.8-1.8,7.2-4C49,127.7,48.7,124.4,48.4,122.9z M44,127c1-1.3,1.6-2.9,1.2-3.2
		c-0.7-0.6-3.2,1.3-4.6,4.2c-0.1,0.2-0.2,0.4-0.2,0.5C41.9,129.4,43.1,128.1,44,127z M56.1,126.7c-0.1-0.3,0-0.5,0.3-0.4
		c1.7,0.1,3.9-0.2,5.3-0.2c1.5,0,2.1,0.7,2.3,1.6c0.1,0.3,0,0.5-0.3,0.4c-2.2-0.2-4,0.3-5.4,0.3C56.9,128.3,56.3,127.7,56.1,126.7z
		 M65,134.8c-0.1,0.3-0.3,0.3-0.5,0.1c-0.4-0.5-0.8-1.5-0.1-3.3c1.1-2.9,6.1-11.1,9.4-15.6c0.3-0.4,0.6-0.5,1-0.2
		c1.2,1,1.5,2.1,0.7,4.5c-1,2.9-2.1,6.5-3.3,10.8c3.3-5.5,7.8-10,11.2-15.3c0.3-0.4,0.5-0.5,0.9-0.1c1.2,1.3,0.9,2.9,0.1,4.5
		c-2.1,4-5.2,10.2-6.7,14.6c-0.1,0.3-0.2,0.3-0.5,0.1c-0.5-0.4-0.9-1.3-0.3-3.3c0.5-1.8,2.4-6.1,4.4-9.9c-3.5,4.2-7.1,8.9-9.3,13
		c-0.2,0.3-0.3,0.4-0.6,0.2c-1-0.7-1.5-1.8-1.2-3.7c0.3-1.7,1.3-6,2.6-10.1C70.2,125.2,66.8,130.7,65,134.8z M93.1,122.9
		c-0.1-0.4,0.2-0.5,0.6-0.4c1,0.2,1.7,1,2,3c0.1,0.8,0.2,1.7,0.2,2.6c1.9-1.9,3.6-4,4.7-5.5c0.2-0.3,0.7-0.4,0.6,0.2
		c-0.1,0.7-0.7,1.7-1.3,2.6c-0.6,0.9-2.1,2.6-3.9,4.3c0.1,1,0.2,2,0.2,2.6c0.2,1.2,0.5,1.7,1,1.7c1.1,0,2.6-2.2,3.4-4.1
		c0.2-0.3,0.5-0.2,0.6,0c0.1,0.5,0.1,1.2-0.4,2.1c-1.1,2-2.7,3-4.2,3c-1.6,0-2.5-1-2.6-3.5c0,0,0,0,0-0.1c-2.3,1.8-4.9,3.3-7.5,3.5
		c-4.1,0.2-5.6-3.7-3.6-7.7c1.9-3.8,5.1-5.5,6.6-4.6c0.7,0.4,1.3,0.9,1.8,1.5c0.5,0.8,0.2,2.6-1,4.1c-1.5,1.9-3.5,2.7-5.6,0.9
		c-1,2.9-0.2,5,1.9,4.8c2.2-0.2,4.8-1.8,7.2-4C93.7,127.7,93.4,124.4,93.1,122.9z M88.6,127c1-1.3,1.6-2.9,1.2-3.2
		c-0.7-0.6-3.2,1.3-4.6,4.2c-0.1,0.2-0.2,0.4-0.2,0.5C86.6,129.4,87.8,128.1,88.6,127z M119.6,128.2c0.8,2.1-1.2,4.4-2.5,5.3
		c-2.2,1.6-4.8,1.5-6.4,0.6c-1.4-0.7-2.6-2.6-2.6-5.2c-0.1-6.5,5.3-12.1,8.8-13.4c1.7-0.6,3.2-0.8,4.1,0.1c0.7,0.6,1.4,1.5,1.6,2.2
		c0.3,0.9,0.2,1.7-0.3,2.7s-0.9,2.1-1.2,3c-0.1,0.2-0.3,0.4-0.7,0.2c-0.7-0.5-1.2-1.4-0.7-2.9c0.5-1.6,1.6-3.4,0.9-4.1
		c-0.9-0.9-5.5,1.6-8.3,6.1c-2.7,4.5-2.4,9-0.9,10.2c2,1.6,5.2-0.5,7.5-5C119.1,127.8,119.5,127.8,119.6,128.2z M132.1,122.6
		c0.3-0.4,0.5-0.5,0.7-0.2c0.5,0.6,0.7,1.9,0,3.4c-0.7,1.4-2.2,3.7-2.9,5.3c-0.8,1.7-0.8,3,0.2,3c1.3-0.1,2.9-2.1,4-4.3
		c0.2-0.3,0.4-0.3,0.5,0s0.1,1-0.3,1.9c-0.8,1.7-2.7,3.4-4.4,3.3c-1.7-0.1-2.5-1.1-2.5-2.5c-1,1.3-2.4,2.4-3.8,2.4
		c-2.9,0-3.4-3.9-0.9-7.6c2.5-3.6,4.9-5,6.4-5c1.3,0,1.9,1,1.9,2.2C131.4,123.8,131.8,123.1,132.1,122.6z M129.7,123.9
		c-1-0.1-3.2,1.9-4.9,4.6c-1.6,2.6-2,5.3-0.8,5.4c1.3,0,2.9-1.9,4.4-4.6C130.3,125.9,130.6,124,129.7,123.9z M143,122.5
		c1,0.2,2,1.7,1.2,3.3c-0.6,1.3-2.1,3.6-2.9,5.2c-0.8,1.8-0.6,3.2,0.5,3.2c1.3-0.1,2.8-2.1,3.9-4.2c0.2-0.3,0.4-0.3,0.5,0
		c0.2,0.3,0.2,1-0.3,1.9c-0.8,1.7-2.8,3.3-4.5,3.3c-2.6,0-3.2-1.9-2.3-4.6c1-3,3.7-6.3,3.2-6.5c-0.3-0.1-2.1,0.7-4,2.9
		c-1.8,2-3.2,4.9-4.5,7.8c-0.1,0.3-0.3,0.4-0.6,0.1c-0.6-0.6-0.8-1.6-0.3-3.2c0.6-1.9,3-6.2,4.9-9c0.2-0.3,0.5-0.3,0.6,0
		c0.5,0.8,0.4,1.8,0.1,2.9C139.9,124,141.9,122.3,143,122.5z M147.1,121.7c-0.3-0.4-0.1-0.6,0.3-0.6c0.9,0,1.7,0,2.5-0.1
		c1-1.7,1.8-3.1,2.3-3.8c0.3-0.4,0.6-0.4,0.7,0c0.3,0.9,0.3,1.9-0.4,3.5c1.2,0,1.7,0.5,1.9,0.9s0.1,0.6-0.4,0.6
		c-0.7-0.1-1.6,0-2.4,0.1c-1.2,2.1-2.9,5-4.1,7.6c-1,2.2-0.7,4.1,0.6,4.2c1.4,0.1,3.1-2.1,4.3-4.4c0.2-0.4,0.5-0.4,0.6,0
		c0.2,0.5,0,1-0.3,1.7c-0.4,0.9-2.4,3.6-4.9,3.5c-2-0.1-3.6-2.3-2.2-5.9c0.6-1.5,1.9-4.1,3.3-6.5C148,122.5,147.3,122.1,147.1,121.7
		z M151.9,130.5c0.8-2.2,2.8-5.9,3.9-7.5c0.3-0.4,0.5-0.5,0.7-0.2c0.5,0.5,0.7,1.8,0,3.3c-0.6,1.3-1.9,3.4-2.6,5
		c-0.7,1.8-0.7,3,0.3,2.9c1.4-0.1,3.1-2.1,4-4.2c0.2-0.3,0.4-0.2,0.5,0c0.2,0.5,0.2,1.1-0.2,1.9c-0.9,1.9-2.9,3.2-4.6,3.2
		C151.6,134.9,151,133,151.9,130.5z M158.7,122.5c-0.4,0.4-1.3,0.3-1.7-0.5c-0.5-0.8-0.3-1.7,0.2-2.3c0.5-0.5,1.4-0.2,1.8,0.7
		C159.3,121.2,159.1,122,158.7,122.5z M167.3,122.5c1,0.2,2,1.7,1.2,3.3c-0.6,1.3-2.1,3.6-2.9,5.2c-0.8,1.8-0.6,3.2,0.5,3.2
		c1.3-0.1,2.8-2.1,3.9-4.2c0.2-0.3,0.4-0.3,0.5,0c0.2,0.3,0.2,1-0.3,1.9c-0.8,1.7-2.8,3.3-4.5,3.3c-2.6,0-3.2-1.9-2.3-4.6
		c1-3,3.7-6.3,3.2-6.5c-0.3-0.1-2.1,0.7-4,2.9c-1.8,2-3.2,4.9-4.5,7.8c-0.1,0.3-0.3,0.4-0.6,0.1c-0.6-0.6-0.8-1.6-0.3-3.2
		c0.6-1.9,3-6.2,4.9-9c0.2-0.3,0.5-0.3,0.6,0c0.5,0.8,0.4,1.8,0.1,2.9C164.2,124,166.3,122.3,167.3,122.5z M180.6,122.6
		c0.3-0.4,0.5-0.5,0.7-0.2c0.5,0.6,0.7,1.9,0,3.4c-0.7,1.4-2.2,3.7-2.9,5.3c-0.8,1.7-0.8,3,0.2,3c1.3-0.1,2.9-2.1,4-4.3
		c0.2-0.3,0.4-0.3,0.5,0s0.1,1-0.3,1.9c-0.8,1.7-2.7,3.4-4.4,3.3c-1.7-0.1-2.5-1.1-2.5-2.5c-1,1.3-2.4,2.4-3.8,2.4
		c-2.9,0-3.4-3.9-0.9-7.6c2.5-3.6,4.9-5,6.4-5c1.3,0,1.9,1,1.9,2.2C179.9,123.8,180.3,123.1,180.6,122.6z M178.2,123.9
		c-1-0.1-3.2,1.9-4.9,4.6c-1.6,2.6-2,5.3-0.8,5.4c1.3,0,2.9-1.9,4.4-4.6C178.8,125.9,179.1,124,178.2,123.9z"/>
	<g>
		<g>
			<path class="st0" d="M87.1,166.6c0-0.9,0.1-1.8,0.2-2.7H43.1c-0.8,0-1.4,0.6-1.4,1.4c0,0.8,0.6,1.4,1.4,1.4L87.1,166.6
				C87.1,166.7,87.1,166.6,87.1,166.6z"/>
			<path class="st0" d="M87.7,171.3H54.8c-0.8,0-1.4,0.6-1.4,1.4c0,0.8,0.6,1.4,1.4,1.4h33.9C88.2,173.2,87.9,172.3,87.7,171.3z"/>
			<path class="st0" d="M90,156.5H34.1c-0.7,0-1.4,0.5-1.5,1.2c-0.2,0.9,0.5,1.7,1.4,1.7h54.5l0,0C89,158.3,89.4,157.4,90,156.5
				L90,156.5z"/>
			<path class="st0" d="M169.6,163.9H125c0.1,0.9,0.2,1.8,0.2,2.7v0.1h44.4c0.8,0,1.4-0.6,1.4-1.4
				C171,164.5,170.3,163.9,169.6,163.9z"/>
			<path class="st0" d="M179.5,156.5h-57.3c0.6,0.9,1.1,1.8,1.5,2.8h55.8c0.8,0,1.4-0.6,1.4-1.4
				C180.9,157.1,180.3,156.5,179.5,156.5z"/>
			<path class="st0" d="M157.9,171.3h-33.3c-0.2,1-0.6,1.9-1,2.8h34.3c0.8,0,1.4-0.6,1.4-1.4C159.3,171.9,158.7,171.3,157.9,171.3z"
				/>
		</g>
		<g>
			<path class="st1" d="M87.1,166.6c0-0.9,0.1-1.8,0.2-2.7H43.1c-0.8,0-1.4,0.6-1.4,1.4c0,0.8,0.6,1.4,1.4,1.4L87.1,166.6
				C87.1,166.7,87.1,166.6,87.1,166.6z"/>
			<path class="st1" d="M87.7,171.3H54.8c-0.8,0-1.4,0.6-1.4,1.4c0,0.8,0.6,1.4,1.4,1.4h33.9C88.2,173.2,87.9,172.3,87.7,171.3z"/>
			<path class="st1" d="M90,156.5H34.1c-0.7,0-1.4,0.5-1.5,1.2c-0.2,0.9,0.5,1.7,1.4,1.7h54.5l0,0C89,158.3,89.4,157.4,90,156.5
				L90,156.5z"/>
			<path class="st1" d="M169.6,163.9H125c0.1,0.9,0.2,1.8,0.2,2.7v0.1h44.4c0.8,0,1.4-0.6,1.4-1.4
				C171,164.5,170.3,163.9,169.6,163.9z"/>
			<path class="st1" d="M179.5,156.5h-57.3c0.6,0.9,1.1,1.8,1.5,2.8h55.8c0.8,0,1.4-0.6,1.4-1.4
				C180.9,157.1,180.3,156.5,179.5,156.5z"/>
			<path class="st1" d="M157.9,171.3h-33.3c-0.2,1-0.6,1.9-1,2.8h34.3c0.8,0,1.4-0.6,1.4-1.4C159.3,171.9,158.7,171.3,157.9,171.3z"
				/>
		</g>
	</g>
	<g>
		<path class="st6" d="M82.8,130.7L82.8,130.7c-0.1,0-0.1,0-0.1,0.1C82.7,130.7,82.8,130.7,82.8,130.7L82.8,130.7z"/>
		<path class="st6" d="M39,118.4L39,118.4c0-0.1,0-0.1,0-0.2l0,0C38.9,118.3,38.9,118.4,39,118.4z"/>
		<path class="st6" d="M84.8,131c0-0.1,0.1-0.2-0.1-0.3C84.7,130.8,84.7,130.9,84.8,131z"/>
		<path class="st6" d="M84.7,131.3c-0.1-0.2-0.1-0.3-0.2-0.4h-0.1C84.5,131.1,84.4,131.3,84.7,131.3z"/>
		<path class="st6" d="M78.4,129.2L78.4,129.2c0.1,0,0.1-0.1,0-0.2c0,0,0-0.1,0-0.2h-0.1c0,0.1-0.1,0.2-0.1,0.3
			C78.3,129.2,78.4,129.2,78.4,129.2z"/>
		<path class="st6" d="M78.1,130.8c-0.3,0.1-0.5,0.2-0.5,0.3v0.1C77.7,131.1,78,131.1,78.1,130.8z"/>
		<path class="st6" d="M78.8,131v-0.1c0,0,0,0-0.1,0C78.8,130.9,78.8,130.9,78.8,131C78.7,131,78.8,131,78.8,131z"/>
		<path class="st6" d="M79.4,131.7c0-0.1,0-0.1,0.1-0.2c-0.1,0-0.1-0.1-0.2-0.1C79.3,131.5,79.2,131.7,79.4,131.7z"/>
		<path class="st6" d="M84.4,127.4c0-0.1,0-0.1,0-0.2C84.3,127.2,84.3,127.2,84.4,127.4C84.3,127.3,84.3,127.3,84.4,127.4
			L84.4,127.4z"/>
		<path class="st6" d="M79.1,131.6c0.1-0.1,0.1-0.1,0.2-0.2C79,131.5,79,131.5,79.1,131.6z"/>
		<path class="st6" d="M138.5,126.5c0-0.1,0-0.2,0.1-0.3C138.4,126.4,138.4,126.4,138.5,126.5z"/>
		<ellipse class="st6" cx="138.5" cy="126.5" rx="0" ry="0"/>
		<path class="st6" d="M84.1,130.8c0.1-0.1,0.1-0.1,0.2-0.2C84.1,130.6,84,130.6,84.1,130.8z"/>
		<path class="st6" d="M137.8,127.9c-0.2,0-0.3,0.1-0.4,0.1C137.6,128,137.7,128.1,137.8,127.9z"/>
		<path class="st6" d="M137.5,126.5c0.2,0,0.2,0.2,0.5,0.2C137.8,126.6,137.7,126.4,137.5,126.5z"/>
		<path class="st6" d="M83.7,130.6c0,0.1,0.1,0.1,0.1,0.2C83.8,130.6,83.9,130.5,83.7,130.6z"/>
		<path class="st6" d="M113.7,121.7C113.6,121.7,113.6,121.8,113.7,121.7C113.7,121.7,113.7,121.7,113.7,121.7L113.7,121.7z"/>
		<path class="st6" d="M138.2,126.8c0.1-0.1,0.2-0.2,0.3-0.2C138.3,126.5,138.3,126.5,138.2,126.8z"/>
		<path class="st6" d="M79.6,131.3C79.6,131.4,79.6,131.4,79.6,131.3C79.6,131.4,79.6,131.4,79.6,131.3L79.6,131.3z"/>
		<path class="st6" d="M37.9,116.9c-0.1,0-0.1,0-0.2,0C37.8,117.1,37.9,117.1,37.9,116.9z"/>
		<path class="st6" d="M37.1,117.1c0.1,0,0.2-0.1,0.2-0.1C37.1,116.9,37.1,116.9,37.1,117.1z"/>
		<path class="st6" d="M38.2,117.9C38,118,38,118,38,118.1h0.1C38.1,118.1,38.1,118,38.2,117.9z"/>
		<path class="st6" d="M123.4,133.1c0.2,0.2,0.4,0.3,0.5,0.5l0,0c-0.1-0.1-0.1-0.3-0.1-0.4C123.7,133.1,123.6,133,123.4,133.1z"/>
		<path class="st6" d="M33.5,116.9c0,0.1,0,0.1,0.1,0.2c0,0,0,0,0.1,0c0-0.2,0-0.2,0.1-0.3C33.6,116.8,33.5,116.8,33.5,116.9z"/>
		<path class="st6" d="M36,126.8C36.1,126.8,36.2,126.8,36,126.8c0.1-0.2,0.1-0.3-0.2-0.2C36.2,126.5,35.9,126.7,36,126.8z"/>
		<path class="st6" d="M38.3,121.2c0.1,0,0.2,0,0.3,0C38.4,121,38.4,121,38.3,121.2z"/>
		<path class="st6" d="M33.7,129.5C33.8,129.5,33.8,129.4,33.7,129.5c0-0.1-0.1-0.1-0.2-0.2v0.1C33.6,129.4,33.7,129.5,33.7,129.5z"
			/>
		<path class="st6" d="M34.4,126.6c-0.1,0-0.2-0.1-0.3-0.1C34.2,126.7,34.3,126.7,34.4,126.6z"/>
		<path class="st6" d="M40,126.3c0,0,0,0.1,0,0.2C40.1,126.4,40.1,126.4,40,126.3z"/>
		<path class="st6" d="M65.3,132.1c0.1,0.1,0.1,0.1,0.2,0.2C65.5,132.1,65.5,131.9,65.3,132.1z"/>
		<path class="st6" d="M51,131.1c-0.1,0-0.1,0-0.2,0C50.8,131.2,50.9,131.2,51,131.1z"/>
		<path class="st6" d="M80.6,127.1C80.6,127.1,80.6,127,80.6,127.1c0.1-0.1,0.1-0.1,0-0.2C80.6,127,80.6,127,80.6,127.1
			C80.5,127,80.6,127.1,80.6,127.1z"/>
		<path class="st6" d="M39.7,126.7c-0.1,0-0.1,0-0.2,0C39.6,126.8,39.6,126.8,39.7,126.7z"/>
		<path class="st6" d="M40.2,126.6c-0.3-0.1-0.3-0.1-0.3,0.1C40,126.7,40.1,126.7,40.2,126.6z"/>
		<path class="st6" d="M36.3,126.8C36.3,126.8,36.4,126.8,36.3,126.8C36.4,126.8,36.4,126.8,36.3,126.8
			C36.4,126.8,36.4,126.8,36.3,126.8z"/>
		<path class="st6" d="M32.6,129.4L32.6,129.4L32.6,129.4L32.6,129.4z"/>
		<path class="st6" d="M80.3,127c0.1,0,0.1,0.1,0.2,0.1C80.5,126.9,80.5,126.9,80.3,127z"/>
		<path class="st6" d="M137.3,126.9L137.3,126.9c0.1,0,0.2,0,0.1-0.1C137.4,126.8,137.3,126.8,137.3,126.9
			C137.3,126.8,137.3,126.8,137.3,126.9z"/>
		<path class="st6" d="M136.8,125.3c-0.1,0.1-0.1,0.1-0.2,0.1C136.7,125.5,136.8,125.5,136.8,125.3z"/>
		<path class="st6" d="M133.1,122.9c0-0.1,0-0.1,0.1-0.2l0,0C133.1,122.8,133.1,122.9,133.1,122.9L133.1,122.9z"/>
		<path class="st6" d="M132.3,127.3c0,0.1,0.1,0.1,0.1,0.2c0-0.1,0.1-0.2,0.1-0.2l0,0C132.5,127.3,132.4,127.3,132.3,127.3z"/>
		<path class="st6" d="M131.3,127.3c0.2,0.1,0.4,0.1,0.5,0.1C131.7,127.2,131.5,127.2,131.3,127.3z"/>
		<path class="st6" d="M132.2,127.6C132.1,127.6,132.1,127.7,132.2,127.6c-0.1,0.1-0.1,0.1-0.1,0.2l0,0
			C132.2,127.7,132.2,127.7,132.2,127.6L132.2,127.6z"/>
		<path class="st6" d="M119.6,115.3c0.1,0,0.2,0,0.2,0.1c0,0,0,0,0-0.1C119.8,115.3,119.8,115.2,119.6,115.3z"/>
		<path class="st6" d="M114.9,119C114.8,119,114.8,119,114.9,119c-0.1,0.1-0.1,0.1,0,0.2C114.9,119.1,114.9,119.1,114.9,119
			L114.9,119z"/>
		<path class="st6" d="M116,119.1L116,119.1c-0.1,0-0.1,0.1-0.2,0.1l0,0C115.9,119.2,115.9,119.2,116,119.1
			C116,119.2,116,119.1,116,119.1z"/>
		<path class="st6" d="M121.5,120.7L121.5,120.7c0,0.1,0,0.1,0,0.2c0,0,0,0,0.1,0C121.5,120.8,121.5,120.8,121.5,120.7z"/>
		<path class="st6" d="M132,127.6c-0.1,0.1-0.1,0.1-0.2,0.1C132,127.8,132,127.8,132,127.6z"/>
		<path class="st6" d="M127.1,133.4L127.1,133.4L127.1,133.4z"/>
		<path class="st6" d="M126.1,134.1L126.1,134.1L126.1,134.1C126.2,134.1,126.2,134.1,126.1,134.1L126.1,134.1z"/>
		<path class="st6" d="M130.8,126.7c-0.1,0-0.2-0.1-0.4-0.1C130.6,126.7,130.7,126.7,130.8,126.7z"/>
		<path class="st6" d="M127,132.2L127,132.2c0.1,0,0.1-0.1,0.1-0.1l0,0C127,132.1,126.9,132.1,127,132.2
			C126.9,132.2,126.9,132.2,127,132.2z"/>
		<path class="st6" d="M126.9,133.1c0,0.1,0.1,0.1,0.1,0.2C127.1,133.1,127.1,133.1,126.9,133.1z"/>
		<path class="st6" d="M125.6,134.3c0,0.1,0,0.2,0.1,0.2h0.1C125.8,134.3,125.7,134.3,125.6,134.3z"/>
		<path class="st6" d="M125.9,133.3c0,0-0.1,0-0.2,0.1c0.1,0,0.2,0,0.3,0.1c0-0.1,0-0.2,0.1-0.3c0.2-0.1,0.2,0.1,0.3,0.2
			c0.2-0.3,0.2-0.3-0.2-0.5C126.1,133.1,126,133.1,125.9,133.3L125.9,133.3C125.9,133.2,125.9,133.2,125.9,133.3
			C125.8,133.2,125.8,133.2,125.9,133.3C126,133.3,126,133.3,125.9,133.3z"/>
		<path class="st6" d="M124.3,133.8C124.2,133.8,124.2,133.7,124.3,133.8C124.2,133.8,124.2,133.8,124.3,133.8
			C124.2,133.8,124.2,133.8,124.3,133.8C124.2,133.8,124.3,133.8,124.3,133.8z"/>
		<path class="st6" d="M132.4,127.6L132.4,127.6L132.4,127.6z"/>
		<path class="st6" d="M109.6,124.7c0,0.1,0,0.1,0.1,0.2c0.1-0.1,0.1-0.1,0.2-0.2C109.7,124.7,109.6,124.7,109.6,124.7z"/>
		<path class="st6" d="M131.8,134.2C131.9,134.2,131.9,134.2,131.8,134.2c0.1-0.1,0.1-0.1,0-0.1l0,0
			C131.9,134.1,131.8,134.2,131.8,134.2z"/>
		<path class="st6" d="M115.9,133.1c0.1,0,0.1,0,0.2,0C116,132.9,116,132.9,115.9,133.1z"/>
		<path class="st6" d="M135.7,127.6c-0.1,0-0.1,0-0.2,0C135.6,127.7,135.6,127.7,135.7,127.6z"/>
		<path class="st6" d="M133.8,133.2L133.8,133.2c0-0.1-0.1-0.1-0.1-0.2l0,0C133.7,133.1,133.7,133.1,133.8,133.2z"/>
		<path class="st6" d="M136.6,126.1L136.6,126.1c0.1,0,0.1-0.1,0.2-0.2c-0.1,0-0.1,0-0.2-0.1C136.6,126,136.6,126,136.6,126.1z"/>
		<path class="st6" d="M136.2,127.4c-0.1,0-0.2,0.1-0.2,0.1c0.1,0.1,0.1,0.1,0.1,0.1S136.1,127.5,136.2,127.4z"/>
		<path class="st6" d="M136.5,125.6L136.5,125.6L136.5,125.6C136.4,125.5,136.4,125.5,136.5,125.6
			C136.4,125.6,136.4,125.6,136.5,125.6C136.4,125.6,136.4,125.6,136.5,125.6z"/>
		<path class="st6" d="M112.9,121.1c0.1-0.1,0.1-0.3,0-0.4C112.7,120.8,112.7,120.9,112.9,121.1z"/>
		<path class="st6" d="M112.7,120.8c-0.1,0-0.2,0-0.3,0c0-0.1,0-0.1,0-0.2c0,0,0-0.1-0.1-0.1h-0.1c0,0.2-0.1,0.1-0.1,0.1
			c-0.1,0-0.2,0.1-0.3,0.1c0.1,0.1,0.2,0.1,0.3,0c0.1,0,0.2,0,0.3,0l0,0C112.5,120.7,112.6,120.8,112.7,120.8
			C112.7,120.9,112.7,120.8,112.7,120.8z"/>
		<path class="st6" d="M164.1,131.9c-0.1,0-0.2,0-0.2,0C164,132.1,164,132.1,164.1,131.9z"/>
		<path class="st6" d="M112.1,121.6c-0.2-0.1-0.2,0-0.3,0.1C111.9,121.8,111.9,121.6,112.1,121.6z"/>
		<path class="st6" d="M164,130.6C164,130.6,164.1,130.7,164,130.6c0.1,0.1,0.1,0,0.1,0C164.2,130.6,164.1,130.6,164,130.6
			C164.1,130.6,164,130.6,164,130.6z"/>
		<path class="st6" d="M110.4,131.5c-0.1,0.1-0.1,0.1,0.2,0.2C110.5,131.7,110.4,131.6,110.4,131.5z"/>
		<path class="st6" d="M113,121.6c-0.1,0.2-0.1,0.2,0.1,0.3C113,121.8,113,121.7,113,121.6z"/>
		<path class="st6" d="M111,124.9C111,124.9,111,125,111,124.9C111,125,111.1,125,111,124.9L111,124.9
			C111.1,124.9,111.1,124.9,111,124.9z"/>
		<path class="st6" d="M114.1,119c0,0.2,0.1,0.2,0.3,0.2C114.3,118.9,114.3,118.9,114.1,119z"/>
		<path class="st6" d="M95.7,130.2c0.1,0.1,0,0.3,0.3,0.3C95.9,130.4,95.8,130.3,95.7,130.2L95.7,130.2z"/>
		<path class="st6" d="M96.1,130.5l0.1-0.1c0,0-0.1-0.1-0.2-0.2C96.1,130.3,96.1,130.4,96.1,130.5z"/>
		<path class="st6" d="M95.6,134.3L95.6,134.3l0.1,0.1c0,0,0.1,0,0.1-0.1C95.7,134.3,95.7,134.3,95.6,134.3z"/>
		<path class="st6" d="M95.4,134.1L95.4,134.1c0.1,0,0.1,0,0-0.1C95.4,134,95.4,134,95.4,134.1z"/>
		<path class="st6" d="M96.3,130.4L96.3,130.4L96.3,130.4z"/>
		<ellipse class="st6" cx="96.3" cy="130.3" rx="0" ry="0"/>
		<path class="st6" d="M97.4,134.7c-0.1-0.1-0.2-0.2-0.3-0.4c-0.1,0.1-0.1,0.1-0.1,0.2c0.1,0.1,0.1,0.1,0.2,0.2
			C97.3,134.8,97.3,134.8,97.4,134.7z"/>
		<path class="st6" d="M96.6,133.1c0.1,0,0.2,0,0.3,0c0-0.1-0.1-0.1-0.1-0.1C96.7,133,96.6,133,96.6,133.1z"/>
		<path class="st6" d="M101,131.8c0.1,0.1,0.2,0.1,0.3,0C101.2,131.8,101.1,131.8,101,131.8z"/>
		<path class="st6" d="M99.2,133.1L99.2,133.1c0.1,0.1,0.3,0,0.2-0.1h-0.1C99.2,133,99.2,133,99.2,133.1z"/>
		<path class="st6" d="M89.6,128.1c0-0.1-0.1-0.1-0.2-0.1C89.5,128,89.5,128.1,89.6,128.1L89.6,128.1z"/>
		<path class="st6" d="M97.6,134.1L97.6,134.1L97.6,134.1z"/>
		<path class="st6" d="M84.9,131.2L84.9,131.2c0-0.1,0-0.1,0-0.2l0,0C84.9,131.1,84.9,131.2,84.9,131.2z"/>
		<path class="st6" d="M86.7,134.6c0.1,0,0.2,0,0.2,0s0,0,0-0.1C86.9,134.6,86.8,134.6,86.7,134.6L86.7,134.6z"/>
		<path class="st6" d="M88.7,129.8l-0.1,0.1c0,0,0,0,0,0.1l0,0C88.7,129.9,88.7,129.9,88.7,129.8C88.8,129.8,88.7,129.8,88.7,129.8z
			"/>
		<path class="st6" d="M90.7,133.4l0.1-0.1c0,0,0-0.1-0.1-0.1C90.7,133.3,90.7,133.3,90.7,133.4L90.7,133.4z"/>
		<path class="st6" d="M96.3,130.4L96.3,130.4c0.1-0.1,0.1-0.1,0.1-0.2C96.2,130.2,96.3,130.3,96.3,130.4z"/>
		<path class="st6" d="M132.1,134.4c-0.1,0-0.2-0.1-0.3,0l0,0c0.1,0,0.2,0.1,0.3,0.1c0,0,0.1,0,0.1-0.1s0.1-0.1,0.2-0.1l0,0
			C132.3,134.4,132.2,134.4,132.1,134.4z"/>
		<path class="st6" d="M89.8,133.4c0-0.1,0-0.1,0-0.2c0,0,0,0-0.1,0c-0.1,0.1-0.1,0.1-0.2,0.2C89.6,133.4,89.7,133.4,89.8,133.4z"/>
		<path class="st6" d="M60.6,126.2L60.6,126.2C60.7,126.1,60.6,126.1,60.6,126.2L60.6,126.2L60.6,126.2L60.6,126.2
			C60.5,126.1,60.6,126.2,60.6,126.2z"/>
		<path class="st6" d="M94.5,130.3c0.1,0,0.1-0.1,0.1-0.2C94.5,130.2,94.5,130.2,94.5,130.3L94.5,130.3z"/>
		<path class="st6" d="M74.3,131.5v0.1c0,0,0,0,0.1,0C74.4,131.6,74.4,131.6,74.3,131.5C74.4,131.6,74.4,131.6,74.3,131.5
			C74.4,131.5,74.3,131.5,74.3,131.5z"/>
		<path class="st6" d="M95.2,133.2c0,0,0-0.1,0.1-0.2c-0.1,0-0.2,0-0.3,0.1C95,133.2,95.1,133.3,95.2,133.2z"/>
		<path class="st6" d="M97.4,133.9c-0.1,0.1-0.1,0.2-0.1,0.3c0.2,0.1,0.1-0.1,0.2,0C97.7,134,97.4,134.1,97.4,133.9z"/>
		<path class="st6" d="M96,128.2C95.9,128.2,95.9,128.2,96,128.2c-0.1,0.1,0,0.1,0,0.2h0.1C96,128.3,96,128.2,96,128.2z"/>
		<path class="st6" d="M84.3,117.4c0.1,0,0.2,0,0.4,0c-0.1-0.3-0.4-0.1-0.6-0.2C84,117.4,84.1,117.5,84.3,117.4z"/>
		<path class="st6" d="M72.4,133.5c-0.1-0.1-0.2-0.2-0.3-0.2C72.2,133.4,72.2,133.6,72.4,133.5z"/>
		<path class="st6" d="M87.5,134.7L87.5,134.7c0-0.1-0.1-0.2-0.2-0.4c-0.1,0.1-0.1,0.1-0.2,0.2C87.3,134.6,87.4,134.7,87.5,134.7z"
			/>
		<path class="st6" d="M95.9,133.3c0.1-0.1,0.2-0.1,0.3-0.2c-0.3-0.2-0.4-0.2-0.7,0C95.6,133.2,95.8,133.2,95.9,133.3z"/>
		<path class="st6" d="M98.3,134.2c-0.1,0-0.2,0.1-0.1,0.2c0.1,0,0.2-0.1,0.4-0.1C98.6,134.1,98.4,134.1,98.3,134.2z"/>
		<path class="st6" d="M97.6,134.1L97.6,134.1L97.6,134.1z"/>
		<path class="st6" d="M98.4,134.6v-0.1c-0.1,0-0.1,0-0.2,0v0.1C98.3,134.6,98.4,134.6,98.4,134.6z"/>
		<path class="st6" d="M97.7,134c-0.1,0.1-0.1,0.1-0.1,0.1s0.1,0,0.1,0.1C97.7,134.1,97.7,134.1,97.7,134z"/>
		<path class="st6" d="M97,134.3C97,134.3,96.9,134.3,97,134.3c-0.1,0-0.2,0-0.3,0C96.8,134.5,96.9,134.4,97,134.3z"/>
		<path class="st6" d="M99.4,134c0,0.1,0,0.1,0.1,0.2c0.1,0,0.1-0.1,0.2-0.1c0,0,0,0,0-0.1C99.5,133.9,99.4,133.9,99.4,134z"/>
		<path class="st6" d="M96.5,133.8c0,0,0.1,0,0.1,0.1C96.6,133.8,96.6,133.7,96.5,133.8z"/>
		<path class="st6" d="M97.2,134.1c0.1,0,0-0.2,0.1-0.2c0,0,0.1-0.1,0-0.1c0-0.1-0.1,0-0.1,0c-0.1,0-0.2,0-0.2,0s0,0-0.1,0
			c0,0,0,0.1-0.1,0.1c0.1,0,0.1,0,0.1,0c0,0.1,0,0.1,0,0.2C97.1,134.1,97.1,134.1,97.2,134.1z"/>
		<path class="st6" d="M49.9,126.7C49.9,126.7,50,126.7,49.9,126.7c0.2,0,0.2-0.1,0.1-0.2C49.9,126.6,49.9,126.6,49.9,126.7z"/>
		<path class="st6" d="M58.3,126.3L58.3,126.3L58.3,126.3L58.3,126.3z"/>
		<path class="st6" d="M59.8,126.4c0.1-0.1,0.1-0.2,0.1-0.2h-0.1C59.8,126.2,59.8,126.3,59.8,126.4z"/>
		<polygon class="st6" points="58.3,126.3 58.3,126.3 58.3,126.3 58.3,126.3 		"/>
		<path class="st6" d="M57.8,127.9L57.8,127.9c-0.1-0.1-0.1,0-0.2,0C57.7,128,57.8,128,57.8,127.9z"/>
		<path class="st6" d="M58.2,126.3C58.3,126.4,58.3,126.4,58.2,126.3C58.3,126.3,58.3,126.3,58.2,126.3L58.2,126.3z"/>
		<path class="st6" d="M61,126.5c0.1,0,0.2,0,0.2,0c0-0.1-0.1-0.1-0.1-0.1C61.1,126.4,61.1,126.4,61,126.5z"/>
		<path class="st6" d="M64.6,127.8c-0.1,0-0.2,0-0.3,0.1C64.4,127.9,64.5,128,64.6,127.8z"/>
		<path class="st6" d="M62.2,126L62.2,126c0,0.1,0,0.2,0.1,0.2l0,0C62.3,126.2,62.3,126.1,62.2,126z"/>
		<path class="st6" d="M63,128C62.9,128,62.9,128,63,128L63,128z"/>
		<path class="st6" d="M50.6,126.4c-0.1,0.1-0.1,0.1-0.2,0.2C50.5,126.6,50.7,126.6,50.6,126.4z"/>
		<path class="st6" d="M85.6,117.5L85.6,117.5C85.7,117.5,85.7,117.5,85.6,117.5C85.7,117.4,85.7,117.4,85.6,117.5
			C85.6,117.4,85.6,117.5,85.6,117.5z"/>
		<path class="st6" d="M42.2,123.6c-0.1,0.1-0.1,0.2,0.1,0.2C42.2,123.7,42.2,123.7,42.2,123.6z"/>
		<path class="st6" d="M51.9,132.4c0,0.1-0.1,0.2-0.1,0.2C52,132.6,52,132.6,51.9,132.4z"/>
		<path class="st6" d="M47,123.6C46.9,123.6,46.9,123.7,47,123.6c0,0.1,0,0.2,0.1,0.2c0,0,0,0,0.1-0.1
			C47.1,123.8,47.1,123.7,47,123.6C47,123.7,47,123.7,47,123.6z"/>
		<path class="st6" d="M40.5,117.8C40.5,117.8,40.5,117.9,40.5,117.8C40.6,117.9,40.6,117.9,40.5,117.8L40.5,117.8L40.5,117.8z"/>
		<path class="st6" d="M51,125.9c-0.1,0-0.3,0-0.3,0.2C50.8,126.1,51,126.1,51,125.9z"/>
		<path class="st6" d="M134.2,134.6C134.3,134.6,134.3,134.6,134.2,134.6C134.3,134.6,134.3,134.6,134.2,134.6
			C134.3,134.6,134.3,134.6,134.2,134.6C134.3,134.6,134.3,134.6,134.2,134.6z"/>
		<path class="st6" d="M51.6,126.5c-0.2,0-0.3,0.1-0.5,0.1c0,0.1,0.1,0.1,0.1,0.2C51.4,126.8,51.4,126.6,51.6,126.5z"/>
		<path class="st6" d="M64.9,132L64.9,132c-0.1,0.1-0.1,0.1-0.2,0.2c0.2,0,0.4,0,0.6-0.2C65.1,132,65,132.1,64.9,132z"/>
		<path class="st6" d="M82.1,119c0.1,0,0.2,0,0.3-0.1c0,0,0-0.1-0.1-0.2C82.3,118.9,82,118.8,82.1,119z"/>
		<path class="st6" d="M75.6,127.2c0.1,0.2,0.1,0.2,0.4-0.1c-0.1-0.1-0.3-0.1-0.4-0.1V127.2C75.5,127.2,75.5,127.2,75.6,127.2z"/>
		<path class="st6" d="M76.3,127.9c0.1,0,0.1,0,0.2-0.1C76.4,127.8,76.4,127.7,76.3,127.9C76.3,127.8,76.3,127.9,76.3,127.9z"/>
		<path class="st6" d="M76.2,127.4c0-0.1,0.1-0.2,0.1-0.3C76.1,127.2,76.1,127.2,76.2,127.4z"/>
		<path class="st6" d="M81.4,120c0-0.1,0-0.1-0.1-0.2C81.3,119.9,81.2,119.9,81.4,120z"/>
		<path class="st6" d="M85,117.4c-0.1-0.1,0-0.3-0.2-0.3c0,0.1,0,0.2-0.1,0.3C84.8,117.4,84.8,117.4,85,117.4z"/>
		<path class="st6" d="M84.2,120.3c-0.1-0.2-0.1-0.2-0.2-0.1C84.1,120.3,84.1,120.3,84.2,120.3z"/>
		<path class="st6" d="M82.5,120L82.5,120C82.6,120.1,82.6,120,82.5,120C82.6,120,82.6,120,82.5,120C82.6,119.9,82.5,120,82.5,120z"
			/>
		<path class="st6" d="M66,131.5c-0.1,0-0.2,0.1-0.2,0.1C65.9,131.6,66,131.7,66,131.5z"/>
		<path class="st6" d="M66.1,131.8c-0.1,0.1-0.1,0.1-0.2,0.3c0.1,0,0.2,0,0.3,0C66.1,131.9,66.1,131.8,66.1,131.8z"/>
		<path class="st6" d="M65.1,133.7L65.1,133.7c0,0.1,0,0.1,0,0.2c0,0,0,0,0.1,0C65.2,133.8,65.1,133.7,65.1,133.7z"/>
		<path class="st6" d="M66.7,131.6c-0.1,0-0.2,0-0.3,0c0,0.1,0,0.1,0.1,0.1C66.5,131.7,66.5,131.6,66.7,131.6z"/>
		<path class="st6" d="M65.2,134c-0.1,0.2,0,0.4-0.1,0.5C65.2,134.5,65.3,134.3,65.2,134z"/>
		<path class="st6" d="M74,118.7c-0.1,0-0.2,0-0.3,0.1C73.8,118.8,73.9,118.9,74,118.7z"/>
		<path class="st6" d="M73.6,131.2c0.2,0,0.3,0,0.4,0v-0.1C73.9,131.1,73.8,131.1,73.6,131.2z"/>
		<path class="st6" d="M68.6,127.6c-0.1,0-0.2,0-0.4,0C68.4,127.8,68.4,127.8,68.6,127.6z"/>
		<path class="st6" d="M74.5,131.2L74.5,131.2c0-0.1-0.1-0.1-0.1-0.1S74.4,131.1,74.5,131.2C74.4,131.2,74.4,131.2,74.5,131.2z"/>
		<path class="st6" d="M112.6,121.7L112.6,121.7C112.6,121.6,112.6,121.6,112.6,121.7C112.5,121.6,112.5,121.6,112.6,121.7
			C112.5,121.7,112.5,121.7,112.6,121.7z"/>
		<path class="st6" d="M152.4,118.7c-0.1,0-0.1-0.1-0.2-0.1C152.3,118.7,152.3,118.8,152.4,118.7z"/>
		<path class="st6" d="M159,131.6c0-0.1,0-0.2,0-0.3c-0.1,0-0.3,0-0.3,0.1C158.7,131.6,158.9,131.6,159,131.6z"/>
		<path class="st6" d="M152.3,122.3L152.3,122.3L152.3,122.3z"/>
		<path class="st6" d="M147,134c-0.1,0-0.2,0-0.3,0C146.8,134.2,146.8,134.2,147,134z"/>
		<path class="st6" d="M152.8,117.4L152.8,117.4c-0.1,0-0.1,0-0.2,0.1l0,0C152.7,117.5,152.8,117.5,152.8,117.4z"/>
		<path class="st6" d="M175.1,133.3c0.1-0.1,0.1-0.1,0.2-0.2C175.1,133.1,175,133.1,175.1,133.3z"/>
		<path class="st6" d="M160,131.4c0-0.1,0.1-0.1,0.1-0.2c-0.2,0-0.3,0.1-0.4,0.1C159.8,131.4,159.9,131.4,160,131.4
			c0,0.2,0,0.2,0.1,0.2c0-0.1,0.1-0.1,0.1-0.2C160.1,131.5,160,131.5,160,131.4z"/>
		<path class="st6" d="M152.7,122.1c0.1,0,0.2-0.1,0.2-0.1C152.8,122,152.7,122,152.7,122.1z"/>
		<path class="st6" d="M152.7,118.6L152.7,118.6c-0.1,0-0.1,0-0.2,0C152.6,118.7,152.7,118.7,152.7,118.6z"/>
		<path class="st6" d="M123.2,134.6c0.2,0,0.3,0,0.5,0c-0.1-0.2-0.1-0.3-0.2-0.4c-0.1,0.1-0.2,0.1-0.3,0.1
			C123.3,134.4,123.3,134.5,123.2,134.6z"/>
		<path class="st6" d="M169.2,132.2c0.1,0,0.2,0,0.4-0.1c0,0,0-0.1,0-0.2c0.4,0,0.4,0,0.4-0.3c-0.1-0.1-0.2-0.1-0.3-0.2
			c-0.1,0.1-0.2,0.3-0.3,0.4C169.4,132,169.3,132.1,169.2,132.2z"/>
		<path class="st6" d="M171.6,132.3c-0.1,0-0.1-0.1-0.2-0.1C171.4,132.3,171.4,132.4,171.6,132.3z"/>
		<path class="st6" d="M178.9,134.8c-0.1,0-0.2,0.1-0.2,0.1l0,0c0.1,0,0.1,0,0.2,0C178.9,134.9,178.9,134.9,178.9,134.8z"/>
		<path class="st6" d="M170.9,131.8c0.1,0,0.1,0,0.1,0s0,0,0-0.1c-0.1,0-0.1-0.1-0.1-0.1C170.9,131.7,170.9,131.7,170.9,131.8z"/>
		<path class="st6" d="M171.4,133.9c0.3-0.1,0.5,0,0.6,0.3c0.1-0.1,0.1-0.1,0.2-0.2c-0.1,0-0.1-0.1-0.2-0.1c0.1,0,0.3-0.2,0.4,0h0.1
			c0.1,0,0.2,0,0.3,0c0-0.2,0-0.2-0.2-0.2c-0.1,0-0.1-0.1-0.2-0.1c-0.1-0.1-0.1-0.1-0.2-0.2v-0.1c-0.1,0-0.2,0-0.3,0
			c-0.2,0.1-0.3,0.1-0.4-0.1C171.5,133.5,171.4,133.7,171.4,133.9L171.4,133.9z"/>
		<path class="st6" d="M165.6,129c-0.1,0.3-0.1,0.3,0.1,0.3C165.7,129.2,165.7,129.1,165.6,129z"/>
		<path class="st6" d="M170.6,132.3L170.6,132.3c0-0.1-0.1-0.1-0.1-0.2l0,0c0.2,0.1,0.3,0.2,0.5,0.2c0.1-0.1,0.1-0.1,0.2-0.1
			c0.2-0.1,0.2-0.1,0.2-0.4c-0.1,0-0.2,0-0.2,0c-0.2,0-0.3,0.1-0.5,0.1c-0.3,0-0.3,0-0.4,0.3C170.4,132.3,170.5,132.3,170.6,132.3z"
			/>
		<path class="st6" d="M165.4,131.6c0.1,0.1,0.1,0.1,0.2,0.2c0.1-0.1,0.1-0.1,0.2-0.2C165.6,131.6,165.5,131.5,165.4,131.6
			C165.4,131.5,165.4,131.6,165.4,131.6z"/>
		<path class="st6" d="M152.4,122.1c0-0.1,0-0.1,0-0.2C152.3,122,152.3,122,152.4,122.1z"/>
		<path class="st6" d="M150.1,124.2c0-0.1-0.1-0.1-0.1-0.1C149.9,124.2,149.9,124.3,150.1,124.2C150,124.3,150,124.3,150.1,124.2z"
			/>
		<path class="st6" d="M149.1,126c-0.1,0-0.2,0-0.2,0C149,126.1,149,126.1,149.1,126z"/>
		<path class="st6" d="M150.5,125.1L150.5,125.1c0.2-0.1,0.2-0.1,0-0.3C150.5,124.9,150.5,125,150.5,125.1z"/>
		<path class="st6" d="M149.6,125c0.1,0.3,0.2,0,0.3,0.1C149.9,124.9,149.7,125,149.6,125z"/>
		<path class="st6" d="M142.1,129.9c0.1,0,0.2-0.1,0.3-0.1c0.1-0.1,0.1-0.2,0.2-0.3c-0.2,0-0.3,0-0.5,0
			C142.1,129.6,142.1,129.7,142.1,129.9z"/>
		<path class="st6" d="M139.4,125.4c-0.1,0-0.1,0.1-0.2,0.1C139.4,125.6,139.4,125.6,139.4,125.4z"/>
		<path class="st6" d="M150.2,122.5c0-0.1-0.1-0.1-0.2-0.1C150,122.5,150,122.5,150.2,122.5C150.1,122.6,150.1,122.5,150.2,122.5z"
			/>
		<path class="st6" d="M149.8,121.6c0,0.1-0.1,0.2-0.1,0.3l0,0c0-0.1,0-0.2-0.1-0.3c-0.1,0.1-0.2,0.2-0.3,0.3
			c0.2,0.1,0.2,0.1,0.3,0.2c0.4,0.1,0.6-0.1,0.9-0.3c0,0,0,0,0-0.1C150.3,121.4,150.1,121.5,149.8,121.6z"/>
		<path class="st6" d="M148.8,121.5c-0.1,0.1-0.3,0.1-0.3,0.2c-0.1,0.1-0.1,0.3-0.1,0.4c0.2,0.1,0.4,0.1,0.6,0.1c-0.1,0-0.1,0-0.2,0
			c0.2-0.1,0.2-0.3,0.4-0.3c-0.2,0-0.3,0-0.4,0c0-0.1,0-0.2,0.1-0.3C148.9,121.4,148.9,121.4,148.8,121.5z M148.9,122.1L148.9,122.1
			c0-0.1-0.1-0.2,0-0.3C149,121.9,148.9,122,148.9,122.1z"/>
		<path class="st6" d="M147.9,126C147.9,125.9,147.9,125.9,147.9,126C148,125.9,148,125.9,147.9,126L147.9,126
			C147.9,125.9,147.8,125.9,147.9,126C147.8,126,147.8,126,147.9,126z"/>
		<path class="st6" d="M146.7,129.8c0.1,0.2,0.2,0.2,0.4,0.1C146.9,129.9,146.8,129.8,146.7,129.8z"/>
		<path class="st6" d="M152.2,118.9c0-0.1-0.1-0.1-0.1-0.2C151.9,119,151.9,119,152.2,118.9z"/>
		<path class="st6" d="M150.7,121.8l0.1-0.1C150.7,121.7,150.7,121.7,150.7,121.8z"/>
		<path class="st6" d="M151.7,122l0.1-0.1c0,0.1,0,0.1,0.1,0.2c0.1-0.1,0.1-0.1,0.2-0.2c0,0,0,0,0-0.1c-0.2,0-0.3-0.1-0.5-0.1
			C151.5,121.9,151.6,121.9,151.7,122z"/>
		<path class="st6" d="M144.1,123.5c-0.1,0-0.1,0-0.2,0C144,123.7,144.1,123.7,144.1,123.5z"/>
		<path class="st6" d="M144.8,124.4c-0.2,0-0.4-0.1-0.5-0.1C144.3,124.5,144.5,124.6,144.8,124.4z"/>
		<path class="st6" d="M143.8,134.2c0.1,0,0.1,0,0.2,0c0,0,0,0,0-0.1C143.9,134.1,143.8,134.1,143.8,134.2L143.8,134.2z"/>
		<path class="st6" d="M143.6,124.4c0.1,0,0.2,0,0.3,0C143.8,124.3,143.8,124.3,143.6,124.4z"/>
		<path class="st6" d="M148,121.8c0.2,0.1,0.2,0.1,0.4-0.1c0-0.1-0.1-0.2-0.1-0.3c-0.2,0-0.3,0.1-0.5,0.1c0-0.2,0-0.3-0.2-0.4
			c-0.1,0-0.1,0.1-0.2,0.1c0,0.1,0,0.2,0.1,0.3c0,0,0,0,0.1,0.1c0,0,0.1,0,0.1,0.1l0,0C147.7,121.7,147.8,121.8,148,121.8
			C148,121.9,148,121.8,148,121.8z"/>
		<path class="st6" d="M172.4,133.2C172.4,133.2,172.3,133.2,172.4,133.2v0.1C172.4,133.3,172.4,133.3,172.4,133.2z"/>
		<polygon class="st6" points="174.4,133.9 174.4,133.9 174.4,133.9 174.4,133.9 174.4,133.9 174.4,133.9 174.4,133.9 		"/>
		<path class="st6" d="M174.2,133.6c-0.1,0-0.2,0.1-0.2,0.1c0,0.2,0,0.3-0.1,0.5c0.2,0.2,0.4,0,0.7,0c-0.1-0.1-0.1-0.2-0.2-0.3
			C174.2,133.9,174.3,133.7,174.2,133.6z"/>
		<path class="st6" d="M179.2,135c0-0.1,0.1-0.1,0.1-0.2c-0.1,0-0.2-0.1-0.2,0c-0.1,0.1-0.1,0.1-0.2,0.2h0.1
			C179.1,135,179.1,135,179.2,135z"/>
		<path class="st6" d="M172.5,134.2C172.5,134.3,172.5,134.3,172.5,134.2c0.1,0.1,0.2,0.1,0.3,0.1c0.2,0.1,0.2,0.1,0.2-0.2
			c0.1,0.1,0.1,0.2,0.1,0.2c0.1-0.2,0.1-0.2,0-0.3c-0.2,0-0.3,0-0.5,0C172.7,134.1,172.6,134.2,172.5,134.2z"/>
		<path class="st6" d="M178,134.6c0-0.1,0-0.2-0.2-0.2c-0.1,0-0.2-0.1-0.4-0.1c0,0.1,0,0.1,0,0.1c0.1,0.1,0.3,0.2,0.5,0.3
			C177.9,134.7,177.9,134.6,178,134.6z"/>
		<path class="st6" d="M177,133.2c0,0.1,0,0.1,0,0.2c0,0,0,0,0.1,0c0-0.1,0.1-0.1,0.2-0.2C177.1,133.2,177.1,133.2,177,133.2z"/>
		<path class="st6" d="M177.2,134C177.2,134,177.1,134,177.2,134c-0.2-0.1-0.3-0.2-0.4-0.3c0.1,0.2,0.3,0.4,0.4,0.6
			c0-0.1,0-0.1,0-0.2c0-0.1,0.1-0.1,0.1-0.2C177.3,133.8,177.2,133.9,177.2,134z"/>
		<path class="st6" d="M175.8,131.7L175.8,131.7L175.8,131.7L175.8,131.7z"/>
		<path class="st6" d="M164.9,131.7c0,0.1,0,0.1,0,0.1c0.1,0.1,0.3,0,0.3-0.2c-0.1,0-0.1,0-0.1,0C165.1,131.6,165,131.6,164.9,131.7
			C165,131.6,164.9,131.7,164.9,131.7z"/>
		<path class="st6" d="M171.4,134.2c0.1,0,0.1,0,0.2,0.1C171.6,134.2,171.5,134.1,171.4,134.2z"/>
		<path class="st6" d="M164.6,131.5L164.6,131.5c0,0.1,0.1,0.1,0.2,0.1C164.7,131.5,164.6,131.5,164.6,131.5z"/>
		<path class="st6" d="M178.8,134.4c0.3-0.1,0.5,0.1,0.8,0c-0.1-0.2,0.3-0.2,0.2-0.4c-0.1,0-0.1,0-0.1,0c-0.1,0-0.2,0.1-0.4,0.1l0,0
			c-0.2,0.2-0.4-0.1-0.6,0c0.1,0,0.1,0.1,0.1,0.1C178.8,134.3,178.8,134.3,178.8,134.4z"/>
		<path class="st6" d="M164.7,132L164.7,132c-0.1-0.1-0.2-0.1-0.3,0v0.1C164.5,132,164.6,132,164.7,132z"/>
		<path class="st6" d="M173.3,134.1c0.1,0,0.1-0.1,0.1-0.2c0.1,0,0.1,0,0.2,0.1c0-0.1-0.1-0.2-0.1-0.2c-0.2,0.1-0.3,0.1-0.5,0.1
			C173.1,133.9,173.2,134.1,173.3,134.1z"/>
		<path class="st6" d="M175.3,133.5c-0.1,0-0.1,0.1-0.1,0.1c0,0.1-0.1,0.1-0.2,0c0.1-0.1,0.2-0.1,0.1-0.2c-0.1-0.1-0.2-0.1-0.3-0.1
			s-0.2,0-0.3,0c0,0.1,0,0.1-0.1,0.2c-0.1,0.1-0.1,0.1-0.1,0.2c0,0.1,0,0.1,0,0.2c0.1,0,0.2,0,0.3-0.1c0,0,0.1,0,0.2,0
			c0,0,0.1,0,0.1,0.1C175.2,133.8,175.3,133.7,175.3,133.5C175.4,133.6,175.4,133.5,175.3,133.5z"/>
		<path class="st6" d="M172,134.3c-0.1,0-0.1,0-0.2-0.1c-0.1,0.1-0.1,0.2-0.2,0.2C171.9,134.5,172,134.4,172,134.3z"/>
		<path class="st6" d="M172.1,134.5c0.1,0,0.2,0,0.2,0C172.3,134.4,172.2,134.3,172.1,134.5z"/>
		<path class="st6" d="M175.9,123.3c0.1,0,0.3,0,0.4,0l0,0c-0.2,0-0.4-0.1-0.6-0.1l0,0C175.8,123.2,175.9,123.3,175.9,123.3z"/>
		<path class="st6" d="M180.4,133.6c0.1-0.1,0.2-0.1,0.3-0.2c0,0,0,0,0-0.1C180.6,133.4,180.5,133.5,180.4,133.6L180.4,133.6z"/>
		<path class="st6" d="M183.2,130.2c0-0.1-0.1-0.1-0.2-0.1c-0.1,0.1-0.1,0.2-0.2,0.3C183.1,130.5,183.1,130.4,183.2,130.2z"/>
		<path class="st6" d="M183.7,130.7L183.7,130.7c-0.1,0-0.1,0-0.2,0.1c0,0,0,0,0.1,0.1C183.6,130.8,183.7,130.7,183.7,130.7z"/>
		<path class="st6" d="M183.4,131.4c-0.1-0.2-0.2-0.1-0.3,0C183.2,131.4,183.3,131.4,183.4,131.4z"/>
		<path class="st6" d="M180.2,134v0.1l0.1-0.1C180.3,134,180.3,134,180.2,134L180.2,134z"/>
		<path class="st6" d="M173.5,134.2c0.1,0,0.1,0.1,0.3,0C173.6,134.2,173.5,134.2,173.5,134.2L173.5,134.2z"/>
		<path class="st6" d="M181.1,133.8C181.1,133.9,181.1,133.9,181.1,133.8c0.1,0.1,0.2,0.2,0.3,0.3c0,0,0,0,0.1-0.1
			c0-0.1,0.1-0.2,0.1-0.2C181.3,133.7,181.2,134,181.1,133.8z"/>
		<path class="st6" d="M181.8,133.5L181.8,133.5c0.1,0,0.1-0.1,0.1-0.1l0,0C181.8,133.4,181.8,133.4,181.8,133.5z"/>
		<path class="st6" d="M181.7,133.4v-0.1c0,0,0,0-0.1,0C181.6,133.3,181.6,133.4,181.7,133.4C181.6,133.4,181.6,133.4,181.7,133.4z"
			/>
		<path class="st6" d="M180.1,127.7c-0.1-0.1-0.2,0-0.2,0C179.9,127.7,180,127.7,180.1,127.7z"/>
		<path class="st6" d="M182.9,130.9C182.9,130.9,182.8,130.8,182.9,130.9c-0.1-0.1-0.1,0-0.2,0c0,0.1,0,0.1,0,0.3
			c0.1,0,0.2-0.1,0.3-0.1C182.9,131.1,182.9,131,182.9,130.9z"/>
		<path class="st6" d="M179.6,129.1L179.6,129.1c0-0.1,0-0.1,0-0.1s0,0-0.1,0C179.5,129.1,179.6,129.1,179.6,129.1z"/>
		<path class="st6" d="M179.4,128.5c-0.1-0.1-0.1-0.1-0.2-0.2C179.2,128.5,179.3,128.5,179.4,128.5z"/>
		<path class="st6" d="M179.2,134.1h-0.1l0,0C179.1,134.1,179.1,134.1,179.2,134.1z"/>
		<path class="st6" d="M179.4,127C179.5,127,179.5,127,179.4,127C179.4,126.9,179.4,126.9,179.4,127L179.4,127L179.4,127z"/>
		<path class="st6" d="M182.4,132.7c0.1,0.1,0.2,0,0.2-0.1C182.6,132.6,182.5,132.6,182.4,132.7z"/>
		<path class="st6" d="M182.6,132.8c-0.1,0-0.1,0.1-0.1,0.1s0,0.1,0.1,0.1c0.1-0.1,0.1-0.2,0.2-0.2
			C182.7,132.8,182.6,132.8,182.6,132.8z"/>
		<path class="st6" d="M182,132.7c0.1,0,0.2,0,0.3-0.1C182.1,132.5,182.1,132.6,182,132.7z"/>
		<path class="st6" d="M152.5,117.9c0.1,0,0.2-0.1,0.3-0.1c-0.1,0-0.1-0.1-0.2-0.1c-0.1,0-0.1,0-0.2,0
			C152.5,117.8,152.5,117.8,152.5,117.9z"/>
		<path class="st6" d="M112.2,133.9c0,0.1,0,0.2,0,0.3s0.1,0.2,0.2,0.1C112.4,134.2,112.3,134.1,112.2,133.9z"/>
		<polygon class="st6" points="112.3,134.4 112.3,134.4 112.4,134.4 		"/>
		<polygon class="st6" points="112.3,134.4 112.4,134.4 112.4,134.4 		"/>
		<path class="st6" d="M111.9,134.1c-0.1,0-0.3,0-0.4,0.1c0.1,0,0.2,0.1,0.3,0.1C111.8,134.2,111.8,134.1,111.9,134.1z"/>
		<path class="st6" d="M111.6,134c-0.1-0.1-0.1-0.1-0.1-0.2c-0.1,0-0.1,0-0.2,0.1C111.3,134.1,111.5,134,111.6,134z"/>
		<path class="st6" d="M112,133.9c0,0-0.1,0-0.2,0v0.1C111.9,134,112,134,112,133.9C112,134,112,133.9,112,133.9z"/>
		<path class="st6" d="M111.4,133.1c0.1-0.2,0.3-0.1,0.5,0V133c-0.1-0.1-0.2-0.2-0.2-0.3c-0.1,0-0.1,0-0.2,0c-0.2,0-0.4,0.2-0.5,0.4
			C111.1,133.1,111.2,133.2,111.4,133.1C111.3,133.2,111.4,133.2,111.4,133.1z"/>
		<path class="st6" d="M112.5,134.5v-0.1c-0.1,0-0.1,0-0.1,0S112.4,134.5,112.5,134.5C112.4,134.5,112.4,134.5,112.5,134.5z"/>
		<polygon class="st6" points="111.9,134.1 111.9,134.1 111.9,134.1 111.9,134.1 		"/>
		<path class="st6" d="M111.9,134.1L111.9,134.1L111.9,134.1z"/>
		<path class="st6" d="M112.8,134.6L112.8,134.6L112.8,134.6L112.8,134.6z"/>
		<path class="st6" d="M113.6,134.2L113.6,134.2L113.6,134.2L113.6,134.2L113.6,134.2L113.6,134.2z"/>
		<path class="st6" d="M114.2,134.2c-0.1-0.1-0.1-0.1-0.2-0.1c-0.1-0.1-0.3,0-0.4,0.1h0.1c0,0.1,0,0.1,0,0.1c0.1,0,0.3,0,0.4,0
			S114.2,134.2,114.2,134.2z"/>
		<path class="st6" d="M114.3,133.5C114.3,133.6,114.2,133.6,114.3,133.5c-0.1,0.1-0.1,0.1-0.2,0.2c0.1,0,0.2,0,0.3,0
			C114.3,133.6,114.3,133.6,114.3,133.5z"/>
		<path class="st6" d="M113.1,134c0.1,0.1,0.2,0.3,0.3,0.3c0.1,0.1,0.2,0,0.2-0.1l-0.1,0.1C113.4,134.1,113.2,134,113.1,134z"/>
		<path class="st6" d="M112.6,134.4c0.2,0,0.3,0,0.5,0.1c0,0,0,0,0-0.1c-0.1-0.1-0.2-0.2-0.4-0.4
			C112.7,134.2,112.5,134.2,112.6,134.4z"/>
		<path class="st6" d="M113.3,134.7L113.3,134.7l0.1-0.1C113.3,134.5,113.3,134.6,113.3,134.7z"/>
		<path class="st6" d="M112.2,133.5c0.1-0.1,0.1-0.1,0.1-0.2c-0.1,0-0.2-0.1-0.2-0.2C112,133.3,112,133.4,112.2,133.5z"/>
		<path class="st6" d="M123.1,133.1c0.1,0.1,0.1,0.2,0.2,0.3c0-0.1,0.1-0.1,0.1-0.2C123.3,133.1,123.2,133.1,123.1,133.1z"/>
		<path class="st6" d="M123.2,133.5C123.1,133.5,123.1,133.5,123.2,133.5c-0.1,0.1-0.1,0.1-0.1,0.2c0.1,0,0.1,0,0.2,0
			C123.2,133.7,123.2,133.6,123.2,133.5z"/>
		<path class="st6" d="M121.9,133.2v0.1C122,133.3,122,133.3,121.9,133.2C122,133.3,121.9,133.2,121.9,133.2z"/>
		<path class="st6" d="M122.6,134c-0.1,0-0.2,0-0.3,0c0,0.1,0.1,0.1,0.1,0.1C122.5,134.1,122.5,134.1,122.6,134L122.6,134z"/>
		<path class="st6" d="M122.5,133c-0.2,0-0.3-0.1-0.5,0C122.2,133,122.4,133.2,122.5,133z"/>
		<path class="st6" d="M120.3,122.2c0.2,0.2,0.4,0.1,0.6,0.1C120.7,122.1,120.5,122.2,120.3,122.2z"/>
		<path class="st6" d="M123,133.8L123,133.8L123,133.8z"/>
		<path class="st6" d="M114.5,134.2c0.1,0,0.2,0.1,0.3,0.1c0.1,0.1,0.1,0.1,0.3,0.1c0.1,0,0.3,0,0.5-0.1c0-0.1-0.1-0.3-0.2-0.3
			c0,0.1-0.1,0.1-0.1,0.2h-0.1c0-0.1-0.1-0.2-0.3-0.1c-0.1,0-0.2,0.1-0.3-0.1c0,0-0.1-0.1-0.2-0.1c0,0,0,0-0.1,0
			C114.3,134.1,114.3,134.2,114.5,134.2z"/>
		<path class="st6" d="M122.5,133.6c-0.1,0-0.1,0-0.1-0.1c0,0,0-0.1,0.1-0.2c0.1-0.1,0.1-0.1,0.1-0.2c-0.1,0-0.2,0-0.3,0
			c0,0.1,0,0.2-0.1,0.3c-0.1,0-0.1,0-0.1-0.1c0.1,0.2,0.2,0.3,0.3,0.5c0.1-0.1,0.2,0,0.4,0c0.1,0,0.3,0.1,0.4,0.1c0-0.1,0-0.2,0-0.3
			c-0.1,0-0.2,0-0.3-0.1C122.7,133.7,122.6,133.6,122.5,133.6z"/>
		<path class="st6" d="M123.1,132.5c0,0-0.1,0.1-0.2,0.1C123.1,132.7,123.1,132.6,123.1,132.5z"/>
		<path class="st6" d="M123,133.8L123,133.8L123,133.8z"/>
		<path class="st6" d="M118.1,133v0.1c0.1-0.1,0.2-0.2,0.3-0.3C118.3,132.8,118.2,132.8,118.1,133z"/>
		<path class="st6" d="M116.8,133c-0.2,0-0.3,0.1-0.5-0.1c-0.1,0.1-0.1,0.2-0.2,0.3c0.3,0.1,0.6,0.2,0.8,0
			C117,133.1,117,133,116.8,133z"/>
		<path class="st6" d="M123.1,132.2l0.1,0.1l0,0C123.2,132.3,123.2,132.2,123.1,132.2L123.1,132.2z"/>
		<path class="st6" d="M117.1,132.3C117.1,132.3,117,132.4,117.1,132.3c-0.1,0.1,0,0.2,0,0.2C117.1,132.4,117.2,132.4,117.1,132.3
			C117.2,132.3,117.1,132.3,117.1,132.3z"/>
		<path class="st6" d="M117.2,133.6v-0.1c-0.1,0-0.2-0.2-0.4,0c0,0.1,0.1,0.1,0.1,0.2C117,133.7,117.1,133.7,117.2,133.6z"/>
		<path class="st6" d="M118,132.9c-0.1,0-0.2-0.1-0.3-0.1C117.7,133,117.8,133,118,132.9z"/>
		<path class="st6" d="M118.9,131.5c0-0.1,0-0.1,0-0.2c0,0,0,0-0.1,0C118.8,131.4,118.8,131.5,118.9,131.5
			C118.8,131.5,118.8,131.5,118.9,131.5z"/>
		<path class="st6" d="M117.3,133c0.1,0.3,0.1,0.3,0.4,0.2h0.1c0,0,0,0,0.1,0c0.1-0.1,0.1-0.1,0.2-0.2
			C117.8,133.1,117.6,133.1,117.3,133z"/>
		<path class="st6" d="M113.2,118.9c-0.1,0-0.2-0.1-0.3-0.1l0,0l-0.1,0.1C113,119.1,113.1,119,113.2,118.9z"/>
		<path class="st6" d="M130.9,127.7c0.1,0,0.1,0,0.2,0c0.1,0,0.2,0,0.2,0c0.1,0.1,0.2,0,0.4,0c0,0,0,0,0-0.1
			C131.4,127.7,131.2,127.7,130.9,127.7L130.9,127.7z"/>
		<path class="st6" d="M113.3,119.1L113.3,119.1c0.1,0,0.1-0.1,0.2-0.1l0,0C113.4,119,113.3,119,113.3,119.1z"/>
		<path class="st6" d="M131.1,127.3L131.1,127.3c-0.1,0-0.1,0-0.2,0l0,0C131,127.4,131.1,127.3,131.1,127.3z"/>
		<path class="st6" d="M129.9,133.3C129.9,133.4,129.9,133.4,129.9,133.3c0,0.1,0,0.2,0,0.2S129.9,133.4,129.9,133.3z"/>
		<path class="st6" d="M111.5,120.7c0.1-0.1,0.1-0.1,0.2-0.2c-0.1,0-0.2,0-0.2,0S111.5,120.5,111.5,120.7
			C111.5,120.6,111.5,120.6,111.5,120.7z"/>
		<path class="st6" d="M130.8,134.3c-0.1,0-0.1,0-0.2,0l0,0C130.7,134.3,130.7,134.3,130.8,134.3L130.8,134.3z"/>
		<path class="st6" d="M133.4,131.7h0.1c0-0.1,0-0.2-0.1-0.3v0.1C133.4,131.6,133.4,131.6,133.4,131.7z"/>
		<path class="st6" d="M133.6,124.8C133.6,124.7,133.6,124.7,133.6,124.8c-0.1-0.1-0.1,0-0.2,0C133.5,124.8,133.5,124.8,133.6,124.8
			C133.5,124.8,133.6,124.8,133.6,124.8z"/>
		<path class="st6" d="M133.3,123.3c0.3,0.1,0.3,0.1,0.5,0c-0.1,0-0.3-0.1-0.4-0.1C133.3,123.3,133.3,123.3,133.3,123.3z"/>
		<path class="st6" d="M147.3,127.6L147.3,127.6L147.3,127.6z"/>
		<path class="st6" d="M147.3,127.6L147.3,127.6L147.3,127.6L147.3,127.6z"/>
		<path class="st6" d="M147.3,127.9c0-0.1,0-0.2-0.1-0.2C147.3,127.7,147.2,127.8,147.3,127.9z"/>
		<path class="st6" d="M133.8,134.7C133.8,134.8,133.8,134.8,133.8,134.7c0.1,0,0.2,0,0.3,0v-0.1C134,134.6,133.9,134.6,133.8,134.7
			C133.8,134.6,133.8,134.7,133.8,134.7z"/>
		<path class="st6" d="M147.3,127.5c0,0.1,0,0.1,0,0.2c0.1,0,0.1,0,0.2,0C147.4,127.5,147.4,127.4,147.3,127.5z"/>
		<path class="st6" d="M130,134.6c0,0.1-0.1,0.2-0.1,0.3c-0.1-0.1-0.2-0.2-0.3,0c0.2,0.1,0.3,0.1,0.5,0.1c0.1,0,0.1-0.1,0.2-0.1
			C130.2,134.7,130.1,134.6,130,134.6z"/>
		<path class="st6" d="M116,134c-0.1,0-0.2,0-0.3,0c0,0.1,0.1,0.2,0.1,0.4c0.1,0,0.2-0.1,0.4-0.1C116.1,134.2,116.1,134.1,116,134z"
			/>
		<path class="st6" d="M114.5,133.5c-0.1,0-0.1,0-0.2,0.1C114.5,133.5,114.5,133.5,114.5,133.5z"/>
		<path class="st6" d="M131.3,134.9l0.1-0.1c0.1,0,0.2,0,0.3-0.1l0,0c-0.1,0-0.2,0-0.2,0c0-0.2-0.2-0.2-0.3-0.3h0.1
			c0-0.1-0.1-0.1-0.1-0.3c-0.1,0.1-0.1,0.1-0.1,0.2c0.1,0.1,0.1,0.1,0.1,0.1l0,0l0,0l0,0c-0.2,0.1-0.3,0.2-0.5,0.2s-0.3,0.1-0.3,0.3
			h0.1C130.8,135,131,134.9,131.3,134.9z"/>
		<path class="st6" d="M132.5,134.1c0.1,0,0.2,0.1,0.3,0.1l0,0c-0.1-0.1-0.1-0.2-0.1-0.2C132.6,134,132.5,134.1,132.5,134.1z"/>
		<path class="st6" d="M125,134.6L125,134.6L125,134.6z"/>
		<path class="st6" d="M125,134.6L125,134.6L125,134.6z"/>
		<path class="st6" d="M124.1,134.6c-0.1-0.1-0.1-0.1-0.2-0.2c0,0.1,0,0.1,0,0.1c0.1,0.1,0.2,0.1,0.3,0.2
			C124.1,134.7,124.1,134.7,124.1,134.6c0.1,0.1,0.1,0.1,0.2,0c0-0.1-0.1-0.1-0.1-0.2C124.1,134.5,124.1,134.5,124.1,134.6z"/>
		<path class="st6" d="M124.7,134.7C124.7,134.7,124.7,134.8,124.7,134.7c0.1,0.1,0.2,0.1,0.2,0
			C124.8,134.7,124.8,134.6,124.7,134.7z"/>
		<path class="st6" d="M123.1,134.4c0-0.1,0-0.2-0.2-0.2l0,0c0,0,0,0.1,0,0.2c-0.1-0.1-0.2-0.1-0.3-0.2c0,0,0,0-0.1,0.1
			c0.1,0.1,0.2,0.2,0.4,0.3C123.1,134.5,123.1,134.5,123.1,134.4z"/>
		<path class="st6" d="M124.2,134.6L124.2,134.6L124.2,134.6L124.2,134.6L124.2,134.6L124.2,134.6z"/>
		<path class="st6" d="M116.4,133.5L116.4,133.5c-0.1,0-0.1,0-0.2,0l0,0C116.2,133.5,116.3,133.5,116.4,133.5z"/>
		<path class="st6" d="M116.3,134l-0.1,0.1c0,0,0,0,0,0.1h0.1C116.4,134.1,116.4,134.1,116.3,134z"/>
		<path class="st6" d="M129.3,134.7C129.4,134.7,129.4,134.6,129.3,134.7c0-0.1-0.1-0.1-0.1-0.1
			C129.3,134.6,129.3,134.7,129.3,134.7z"/>
		<path class="st6" d="M125,134.6l0.1,0.1c0.1,0,0.1-0.1,0.2-0.1h-0.1C125.2,134.5,125.1,134.5,125,134.6z"/>
		<path class="st6" d="M125,134.4c-0.2,0-0.3-0.1-0.5,0c0.2,0.1,0.4,0.2,0.5,0.2C125.1,134.5,125.1,134.4,125,134.4z"/>
		<path class="st6" d="M130,127.3C130,127.3,130,127.2,130,127.3C130,127.2,129.9,127.3,130,127.3L130,127.3z"/>
		<path class="st6" d="M129.7,134.6c-0.1,0-0.1,0-0.2,0C129.6,134.7,129.6,134.7,129.7,134.6z"/>
		<path class="st6" d="M124.2,134.6c0.1-0.1,0.2-0.1,0.2-0.2C124.3,134.4,124.2,134.4,124.2,134.6z"/>
		<path class="st6" d="M124.4,134.3L124.4,134.3L124.4,134.3L124.4,134.3L124.4,134.3z"/>
		<path class="st6" d="M124.5,134.3L124.5,134.3L124.5,134.3C124.5,134.4,124.5,134.4,124.5,134.3L124.5,134.3L124.5,134.3z"/>
		<path class="st6" d="M124.7,134.2c-0.1-0.1-0.1-0.1-0.4,0l0.1,0.1l0,0C124.5,134.2,124.6,134.3,124.7,134.2z"/>
	</g>
	<path id="Tex-Mex_1_" class="st0" d="M36.7,118.5c-1.8,0.1-3.2-0.6-3.5-1.7c-0.1-0.3,0-0.4,0.3-0.4c2.7,0.2,7.8-0.9,9.6-0.9
		c1.3,0,2.5,0.4,2.9,1.6c0.1,0.2,0,0.5-0.4,0.5c-1.5-0.2-3.4,0.2-5.2,0.5c0,0.7-0.2,1.7-1,3.3c-1.8,3.3-4.4,7.6-6.8,13.3
		c-0.1,0.3-0.3,0.3-0.5,0.1c-0.4-0.4-0.8-1.3-0.4-2.8c0.7-2.5,4-9.2,6.9-13.5C37.9,118.4,37.3,118.5,36.7,118.5z M49,122.8
		c-0.1-0.4,0.2-0.5,0.6-0.4c1,0.2,1.7,1,2,3c0.1,0.8,0.2,1.7,0.2,2.6c1.9-1.9,3.6-4,4.7-5.5c0.2-0.3,0.7-0.4,0.6,0.2
		c-0.1,0.7-0.7,1.7-1.3,2.6s-2.1,2.6-3.9,4.3c0.1,1,0.2,2,0.2,2.6c0.2,1.2,0.5,1.7,1,1.7c1.1,0,2.6-2.2,3.4-4.1
		c0.2-0.3,0.5-0.2,0.6,0c0.1,0.5,0.1,1.2-0.4,2.1c-1.1,2-2.7,3-4.2,3c-1.6,0-2.5-1-2.6-3.5c0,0,0,0,0-0.1c-2.3,1.8-4.9,3.3-7.5,3.5
		c-4.1,0.2-5.6-3.7-3.6-7.7c1.9-3.8,5.1-5.5,6.6-4.6c0.7,0.4,1.3,0.9,1.8,1.5c0.5,0.8,0.2,2.6-1,4.1c-1.5,1.9-3.5,2.7-5.6,0.9
		c-1,2.9-0.2,5,1.9,4.8c2.2-0.2,4.8-1.8,7.2-4C49.6,127.6,49.3,124.3,49,122.8z M44.5,126.9c1-1.3,1.6-2.9,1.2-3.2
		c-0.7-0.6-3.2,1.3-4.6,4.2c-0.1,0.2-0.2,0.4-0.2,0.5C42.4,129.4,43.6,128.1,44.5,126.9z M56.7,126.7c-0.1-0.3,0-0.5,0.3-0.4
		c1.7,0.1,3.9-0.2,5.3-0.2c1.5,0,2.1,0.7,2.3,1.6c0.1,0.3,0,0.5-0.3,0.4c-2.2-0.2-4,0.3-5.4,0.3C57.5,128.2,56.9,127.6,56.7,126.7z
		 M65.5,134.8c-0.1,0.3-0.3,0.3-0.5,0.1c-0.4-0.5-0.8-1.5-0.1-3.3c1.1-2.9,6.1-11.1,9.4-15.6c0.3-0.4,0.6-0.5,1-0.2
		c1.2,1,1.5,2.1,0.7,4.5c-1,2.9-2.1,6.5-3.3,10.8c3.3-5.5,7.8-10,11.2-15.3c0.3-0.4,0.5-0.5,0.9-0.1c1.2,1.3,0.9,2.9,0.1,4.5
		c-2.1,4-5.2,10.2-6.7,14.6c-0.1,0.3-0.2,0.3-0.5,0.1c-0.5-0.4-0.9-1.3-0.3-3.3c0.5-1.8,2.4-6.1,4.4-9.9c-3.5,4.2-7.1,8.9-9.3,13
		c-0.2,0.3-0.3,0.4-0.6,0.2c-1-0.7-1.5-1.8-1.2-3.7c0.3-1.7,1.3-6,2.6-10.1C70.8,125.2,67.4,130.7,65.5,134.8z M93.7,122.8
		c-0.1-0.4,0.2-0.5,0.6-0.4c1,0.2,1.7,1,2,3c0.1,0.8,0.2,1.7,0.2,2.6c1.9-1.9,3.6-4,4.7-5.5c0.2-0.3,0.7-0.4,0.6,0.2
		c-0.1,0.7-0.7,1.7-1.3,2.6c-0.6,0.9-2.1,2.6-3.9,4.3c0.1,1,0.2,2,0.2,2.6c0.2,1.2,0.5,1.7,1,1.7c1.1,0,2.6-2.2,3.4-4.1
		c0.2-0.3,0.5-0.2,0.6,0c0.1,0.5,0.1,1.2-0.4,2.1c-1.1,2-2.7,3-4.2,3c-1.6,0-2.5-1-2.6-3.5c0,0,0,0,0-0.1c-2.3,1.8-4.9,3.3-7.5,3.5
		c-4.1,0.2-5.6-3.7-3.6-7.7c1.9-3.8,5.1-5.5,6.6-4.6c0.7,0.4,1.3,0.9,1.8,1.5c0.5,0.8,0.2,2.6-1,4.1c-1.5,1.9-3.5,2.7-5.6,0.9
		c-1,2.9-0.2,5,1.9,4.8c2.2-0.2,4.8-1.8,7.2-4C94.3,127.6,94,124.3,93.7,122.8z M89.2,126.9c1-1.3,1.6-2.9,1.2-3.2
		c-0.7-0.6-3.2,1.3-4.6,4.2c-0.1,0.2-0.2,0.4-0.2,0.5C87.1,129.4,88.3,128.1,89.2,126.9z M120.2,128.2c0.8,2.1-1.2,4.4-2.5,5.3
		c-2.2,1.6-4.8,1.5-6.4,0.6c-1.4-0.7-2.6-2.6-2.6-5.2c-0.1-6.5,5.3-12.1,8.8-13.4c1.7-0.6,3.2-0.8,4.1,0.1c0.7,0.6,1.4,1.5,1.6,2.2
		c0.3,0.9,0.2,1.7-0.3,2.7s-0.9,2.1-1.2,3c-0.1,0.2-0.3,0.4-0.7,0.2c-0.7-0.5-1.2-1.4-0.7-2.9c0.5-1.6,1.6-3.4,0.9-4.1
		c-0.9-0.9-5.5,1.6-8.3,6.1c-2.7,4.5-2.4,9-0.9,10.2c2,1.6,5.2-0.5,7.5-5C119.7,127.8,120,127.8,120.2,128.2z M132.7,122.6
		c0.3-0.4,0.5-0.5,0.7-0.2c0.5,0.6,0.7,1.9,0,3.4c-0.7,1.4-2.2,3.7-2.9,5.3c-0.8,1.7-0.8,3,0.2,3c1.3-0.1,2.9-2.1,4-4.3
		c0.2-0.3,0.4-0.3,0.5,0s0.1,1-0.3,1.9c-0.8,1.7-2.7,3.4-4.4,3.3c-1.7-0.1-2.5-1.1-2.5-2.5c-1,1.3-2.4,2.4-3.8,2.4
		c-2.9,0-3.4-3.9-0.9-7.6c2.5-3.6,4.9-5,6.4-5c1.3,0,1.9,1,1.9,2.2C132,123.7,132.4,123.1,132.7,122.6z M130.3,123.8
		c-1-0.1-3.2,1.9-4.9,4.6c-1.6,2.6-2,5.3-0.8,5.4c1.3,0,2.9-1.9,4.4-4.6C130.9,125.8,131.1,123.9,130.3,123.8z M143.5,122.4
		c1,0.2,2,1.7,1.2,3.3c-0.6,1.3-2.1,3.6-2.9,5.2c-0.8,1.8-0.6,3.2,0.5,3.2c1.3-0.1,2.8-2.1,3.9-4.2c0.2-0.3,0.4-0.3,0.5,0
		c0.2,0.3,0.2,1-0.3,1.9c-0.8,1.7-2.8,3.3-4.5,3.3c-2.6,0-3.2-1.9-2.3-4.6c1-3,3.7-6.3,3.2-6.5c-0.3-0.1-2.1,0.7-4,2.9
		c-1.8,2-3.2,4.9-4.5,7.8c-0.1,0.3-0.3,0.4-0.6,0.1c-0.6-0.6-0.8-1.6-0.3-3.2c0.6-1.9,3-6.2,4.9-9c0.2-0.3,0.5-0.3,0.6,0
		c0.5,0.8,0.4,1.8,0.1,2.9C140.4,123.9,142.5,122.2,143.5,122.4z M147.6,121.7c-0.3-0.4-0.1-0.6,0.3-0.6c0.9,0,1.7,0,2.5-0.1
		c1-1.7,1.8-3.1,2.3-3.8c0.3-0.4,0.6-0.4,0.7,0c0.3,0.9,0.3,1.9-0.4,3.5c1.2,0,1.7,0.5,1.9,0.9s0.1,0.6-0.4,0.6
		c-0.7-0.1-1.6,0-2.4,0.1c-1.2,2.1-2.9,5-4.1,7.6c-1,2.2-0.7,4.1,0.6,4.2c1.4,0.1,3.1-2.1,4.3-4.4c0.2-0.4,0.5-0.4,0.6,0
		c0.2,0.5,0,1-0.3,1.7c-0.4,0.9-2.4,3.6-4.9,3.5c-2-0.1-3.6-2.3-2.2-5.9c0.6-1.5,1.9-4.1,3.3-6.5C148.6,122.5,147.9,122,147.6,121.7
		z M152.4,130.4c0.8-2.2,2.8-5.9,3.9-7.5c0.3-0.4,0.5-0.5,0.7-0.2c0.5,0.5,0.7,1.8,0,3.3c-0.6,1.3-1.9,3.4-2.6,5
		c-0.7,1.8-0.7,3,0.3,2.9c1.4-0.1,3.1-2.1,4-4.2c0.2-0.3,0.4-0.2,0.5,0c0.2,0.5,0.2,1.1-0.2,1.9c-0.9,1.9-2.9,3.2-4.6,3.2
		C152.2,134.9,151.6,132.9,152.4,130.4z M159.3,122.4c-0.4,0.4-1.3,0.3-1.7-0.5c-0.5-0.8-0.3-1.7,0.2-2.3c0.5-0.5,1.4-0.2,1.8,0.7
		C159.9,121.1,159.7,122,159.3,122.4z M167.9,122.4c1,0.2,2,1.7,1.2,3.3c-0.6,1.3-2.1,3.6-2.9,5.2c-0.8,1.8-0.6,3.2,0.5,3.2
		c1.3-0.1,2.8-2.1,3.9-4.2c0.2-0.3,0.4-0.3,0.5,0c0.2,0.3,0.2,1-0.3,1.9c-0.8,1.7-2.8,3.3-4.5,3.3c-2.6,0-3.2-1.9-2.3-4.6
		c1-3,3.7-6.3,3.2-6.5c-0.3-0.1-2.1,0.7-4,2.9c-1.8,2-3.2,4.9-4.5,7.8c-0.1,0.3-0.3,0.4-0.6,0.1c-0.6-0.6-0.8-1.6-0.3-3.2
		c0.6-1.9,3-6.2,4.9-9c0.2-0.3,0.5-0.3,0.6,0c0.5,0.8,0.4,1.8,0.1,2.9C164.8,123.9,166.9,122.2,167.9,122.4z M181.2,122.6
		c0.3-0.4,0.5-0.5,0.7-0.2c0.5,0.6,0.7,1.9,0,3.4c-0.7,1.4-2.2,3.7-2.9,5.3c-0.8,1.7-0.8,3,0.2,3c1.3-0.1,2.9-2.1,4-4.3
		c0.2-0.3,0.4-0.3,0.5,0s0.1,1-0.3,1.9c-0.8,1.7-2.7,3.4-4.4,3.3c-1.7-0.1-2.5-1.1-2.5-2.5c-1,1.3-2.4,2.4-3.8,2.4
		c-2.9,0-3.4-3.9-0.9-7.6c2.5-3.6,4.9-5,6.4-5c1.3,0,1.9,1,1.9,2.2C180.5,123.7,180.9,123.1,181.2,122.6z M178.7,123.8
		c-1-0.1-3.2,1.9-4.9,4.6c-1.6,2.6-2,5.3-0.8,5.4c1.3,0,2.9-1.9,4.4-4.6C179.4,125.8,179.6,123.9,178.7,123.8z"/>
</g>
</svg>
