<?xml version="1.0" encoding="utf-8"?>
<!-- Generator: Adobe Illustrator 19.2.1, SVG Export Plug-In . SVG Version: 6.00 Build 0)  -->
<svg version="1.1" id="Layer_1" xmlns="http://www.w3.org/2000/svg" xmlns:xlink="http://www.w3.org/1999/xlink" x="0px" y="0px"
	 viewBox="0 0 271.8 47.8" style="enable-background:new 0 0 271.8 47.8;" xml:space="preserve">
<metadata><?xpacket begin="﻿" id="W5M0MpCehiHzreSzNTczkc9d"?>
<x:xmpmeta xmlns:x="adobe:ns:meta/" x:xmptk="Adobe XMP Core 5.6-c111 79.158366, 2015/09/25-01:12:00        ">
   <rdf:RDF xmlns:rdf="http://www.w3.org/1999/02/22-rdf-syntax-ns#">
      <rdf:Description rdf:about=""/>
   </rdf:RDF>
</x:xmpmeta>
                                                                                                    
                                                                                                    
                                                                                                    
                                                                                                    
                                                                                                    
                                                                                                    
                                                                                                    
                                                                                                    
                                                                                                    
                                                                                                    
                                                                                                    
                                                                                                    
                                                                                                    
                                                                                                    
                                                                                                    
                                                                                                    
                                                                                                    
                                                                                                    
                                                                                                    
                                                                                                    
                           
<?xpacket end="w"?></metadata>
<style type="text/css">
	.st0{fill:#FFFFFF;}
	.st1{fill:#DE1F26;}
</style>
<path class="st0" d="M32.4,23l0.3,1.9c-3.9,3.9-7.7,7-11.4,9c-3.7,2.1-7,3.1-10,3.1c-2.8,0-5-0.8-6.7-2.4c-1.7-1.6-2.6-3.7-2.6-6.3
	c0-2.9,1.1-6.1,3.4-9.4c2.3-3.4,5.5-6.6,9.6-9.7c3.4-2.5,6.6-4.5,9.5-5.9c2.9-1.4,5.4-2,7.5-2c1.3,0,2.3,0.3,3,1
	c0.7,0.7,1.1,1.6,1.1,2.8c0,1.7-0.6,3.4-1.7,5.4c-1.2,1.9-2.9,4-5.2,6.1c-2,1.9-4,3.5-6,4.8c-2,1.3-3.4,1.9-4.1,1.9
	c-0.6,0-1.2-0.3-1.8-1c-0.6-0.7-0.9-1.4-0.9-2.1c0-0.7,0.7-1.8,2.2-3.2c1.5-1.4,3.5-2.8,5.9-4.2l0.2,1c2.1-1.6,3.8-3.2,5.1-4.8
	c1.3-1.6,2-2.8,2-3.6c0-0.3-0.1-0.6-0.2-0.7c-0.2-0.1-0.4-0.2-0.7-0.2c-0.9,0-2.5,0.7-4.8,2.1C23.9,8.1,21.5,9.9,19,12
	c-3.1,2.6-5.5,5.4-7.2,8.2c-1.7,2.8-2.6,5.4-2.6,7.6c0,1.4,0.4,2.6,1.2,3.4c0.8,0.8,2,1.2,3.5,1.2c2.3,0,5.1-0.8,8.2-2.4
	C25.3,28.4,28.7,26.1,32.4,23 M42.9,30.1c-2.3,3.4-4.3,6.4-5.8,9.2c-1.5,2.8-2.3,4.5-2.3,5.2c0,0.7,0.2,1.5,0.5,2.3
	c0.3,0.8,0.6,1.2,0.8,1.2c0.2,0,2.1-2.2,5.9-6.7c3.7-4.4,7.5-8.8,11.3-13v-2.1c-1.7,1.9-3.4,3.7-5.3,5.4c-1.8,1.7-3.7,3.3-5.7,4.8
	c1.5-2.5,3.3-5.4,5.5-8.6c2.2-3.3,3.3-5.3,3.3-6.1c0-0.7-0.1-1.2-0.3-1.5c-0.2-0.3-0.6-0.6-1.1-0.6c-3.2,3.3-6.2,6-9.1,8.3
	c-2.9,2.3-4.7,3.4-5.3,3.4c-0.1,0-0.1,0-0.2-0.1c0-0.1,0-0.2,0-0.4c0-0.4,0.1-0.9,0.4-1.4c0.2-0.5,0.7-1.1,1.3-1.8
	c1.9-1.5,3.4-3,4.5-4.3c1.1-1.3,1.7-2.3,1.7-2.8c0-0.3-0.3-0.7-0.8-1.2c-0.5-0.5-1-0.7-1.4-0.7c-0.3,0-1.1,0.5-2.3,1.4
	c-1.2,1-2.4,2-3.5,3.3c-1.1,1.2-1.9,2.4-2.4,3.5c-0.5,1.1-0.8,2.2-0.8,3.3c0,1.3,0.4,2.7,1.1,4c0.7,1.3,1.4,2,2,2
	c0.5,0,1.5-0.5,3.1-1.6C39.5,33.2,41.1,31.8,42.9,30.1 M68.5,26.2c-2.2,2-4.1,3.5-5.8,4.5c-1.7,1-3.2,1.5-4.6,1.5
	c-0.9,0-1.6-0.3-2.1-0.9c-0.5-0.6-0.8-1.4-0.8-2.4v-0.5c0.6-0.8,1.3-1.6,2.2-2.4c0.9-0.8,2-1.6,3.3-2.3c0,0.6,0.1,1,0.3,1.2
	c0.2,0.2,0.4,0.4,0.7,0.4c0.8,0,1.7-0.8,2.9-2.3c1.2-1.5,1.8-2.9,1.8-4.1c0-0.7-0.2-1.2-0.5-1.5c-0.3-0.3-0.9-0.5-1.7-0.5
	c-0.9,0-2.1,0.4-3.6,1.1c-1.5,0.7-2.9,1.6-4.2,2.7c-1.5,1.2-2.6,2.5-3.4,4c-0.8,1.4-1.2,2.8-1.2,4.3c0,2,0.5,3.7,1.6,5.2
	c1.1,1.5,2.3,2.3,3.6,2.3c1.4,0,3-0.7,4.9-2.1c1.9-1.4,4.1-3.5,6.5-6.2L68.5,26.2 M81.2,26.2c-2.6,2.4-4.4,4-5.3,4.7
	c-1,0.7-1.7,1-2.2,1c-0.8,0-1.4-0.4-1.8-1.1c-0.4-0.7-0.6-1.8-0.6-3.2v-0.9c4-3,7-6.2,9.2-9.7c2.2-3.5,3.3-6.8,3.3-10.1
	c0-0.5-0.1-0.9-0.3-1.2c-0.2-0.3-0.4-0.4-0.7-0.4c-0.7,0-1.7,0.6-3.2,1.8c-1.4,1.2-3,2.8-4.6,4.8c-2.5,3-4.5,6.2-6.1,9.5
	c-1.5,3.3-2.3,6-2.3,8.1c0,1.9,0.4,3.6,1.3,4.9c0.9,1.4,2,2,3.3,2c1.6,0,4.6-2.3,9-7l1-1.1L81.2,26.2 M75.5,16.1
	c1.4-2.3,3.2-4.5,5.2-6.7c-0.9,3-2,5.6-3.4,7.8c-1.4,2.2-3.1,4.2-5.2,5.8C73,20.7,74.1,18.4,75.5,16.1z M90.2,32.9
	c0.1,0,0.3,0,0.4,0c0.2,0,0.4,0,0.6,0c0.9,0,1.8-0.3,2.9-1c1.1-0.7,2.4-1.8,4.1-3.5l0-2.4c-1.6,1.6-2.9,2.7-3.9,3.4
	c-1,0.7-1.8,1-2.5,1c0.8-1.4,1.5-2.7,1.9-3.9c0.4-1.2,0.6-2.4,0.6-3.5c0-0.8-0.1-1.4-0.3-1.7c-0.2-0.3-0.6-0.5-1.1-0.5h-0.1
	c0.1-0.2,0.3-0.4,0.5-0.6c0.2-0.2,0.3-0.4,0.3-0.5c0-0.4-0.3-0.7-1-1.1C92,18.1,91.3,18,90.4,18c-1,0-2.2,0.3-3.5,0.9
	c-1.3,0.6-2.5,1.4-3.6,2.5c-1.3,1.2-2.3,2.5-3.1,4c-0.8,1.5-1.1,2.9-1.1,4.3c0,1.9,0.5,3.5,1.4,4.7c1,1.2,2.2,1.8,3.6,1.8
	c1,0,2-0.3,3-0.8C88.2,34.8,89.2,34,90.2,32.9 M86.1,32c-0.6,0.3-1.2,0.4-1.7,0.4c-0.6,0-1.1-0.2-1.4-0.5c-0.3-0.3-0.5-0.8-0.5-1.4
	c0-1.4,0.7-2.8,2.1-4.5c1.4-1.6,3.2-2.9,5.4-3.8c-0.8,1.4-1.4,2.7-1.8,3.9c-0.4,1.1-0.6,2.1-0.6,3c0,0.2,0,0.6,0.1,1.2
	c0,0.1,0,0.2,0,0.3C87.3,31.3,86.7,31.7,86.1,32z M96.1,28.1c0,0.2,0,0.4,0,0.6c0,0.2,0,0.4,0,0.7c0,1.8,0.2,3.3,0.7,4.4
	c0.5,1.1,1.1,1.7,1.8,1.7c0.5,0,1.8-1.3,3.8-3.8c2.1-2.6,4.2-4.8,6.3-6.8c-1.4,2-2.5,3.6-3.1,5c-0.7,1.4-1,2.6-1,3.5
	c0,1,0.2,1.7,0.7,2.3c0.5,0.6,1.1,0.9,1.8,0.9c0.9,0,2-0.5,3.2-1.4c1.2-0.9,3.5-3.2,6.9-6.9l0-2.1c-2,1.9-3.5,3.2-4.6,4
	c-1.1,0.8-1.8,1.2-2.2,1.2c-0.3,0-0.5-0.1-0.7-0.3c-0.2-0.2-0.2-0.4-0.2-0.7c0-0.4,0.2-1,0.7-2c0.5-0.9,1.1-1.9,1.8-2.9
	c0.3-0.3,0.7-0.8,1.2-1.4c1-1.1,1.5-2,1.5-2.8c0-0.7-0.2-1.4-0.5-2c-0.3-0.6-0.7-0.9-1-0.9c-0.9,0-2.7,1-5.2,3.1
	c-2.5,2.1-5.2,4.7-8,7.9v-0.1c0-0.4,0.1-0.9,0.3-1.4c0.2-0.5,0.5-1,0.9-1.4c1.3-1.5,2.4-2.7,3-3.6c0.7-0.9,1-1.5,1-1.8
	c0-0.3-0.2-0.5-0.7-0.7c-0.5-0.2-1-0.3-1.6-0.3c-1,0-2.1,0.7-3.3,2C98.5,23.4,97.3,25.4,96.1,28.1 M119.4,28.5
	c3.3-0.8,6.1-2.1,8.4-3.9c2.3-1.8,3.4-3.5,3.4-5.1c0-0.7-0.3-1.2-0.8-1.6c-0.6-0.3-1.4-0.5-2.5-0.5c-1.5,0-3,0.3-4.5,1
	c-1.5,0.7-2.9,1.7-4.3,3c-1.4,1.3-2.4,2.7-3.1,4.1c-0.7,1.4-1.1,2.9-1.1,4.4c0,2,0.5,3.6,1.4,4.7c0.9,1.1,2.2,1.6,4,1.6
	c1.8,0,3.6-0.6,5.5-1.9c1.9-1.2,4.1-3.2,6.6-6v-2.1c-1.9,1.9-3.7,3.3-5.5,4.4c-1.7,1-3.2,1.5-4.4,1.5c-0.9,0-1.7-0.3-2.2-0.9
	c-0.6-0.6-0.8-1.5-0.8-2.5V28.5 M119.6,26.4c1-1.9,2.3-3.4,3.8-4.7c1.6-1.2,2.9-1.9,3.8-1.9c0.1,0,0.2,0,0.2,0.1
	c0.1,0.1,0.1,0.2,0.1,0.4c0,0.7-0.7,1.6-2.1,2.7C124,24.2,122.1,25.3,119.6,26.4 M147.4,25.1h1.6c1.7,0,3.3,0,4.7-0.1
	c1.4-0.1,2.6-0.2,3.8-0.3l-2,6.2c-0.1,0.3-0.2,0.7-0.2,1.1c-0.1,0.4-0.1,0.8-0.1,1.2c0,0.9,0.2,1.5,0.6,2c0.4,0.4,1.1,0.7,1.9,0.7
	c1.2,0,2.5-0.5,3.9-1.5c1.4-1,3.6-3.1,6.5-6.2l0-1.6c-2,1.7-3.6,2.9-4.7,3.6c-1.1,0.7-1.9,1.1-2.3,1.1c-0.2,0-0.4-0.1-0.5-0.3
	c-0.1-0.2-0.2-0.5-0.2-0.9c0-0.4,0.1-1,0.3-1.7c0.2-0.8,0.5-1.9,1-3.5c0.2,0,0.5-0.1,0.9-0.1c1.3-0.1,2.2-0.4,2.6-0.7
	c0.9-0.8,1.7-1.6,2.3-2.5c0.7-0.9,1-1.5,1-1.9c0-0.3-0.2-0.5-0.7-0.7c-0.4-0.2-1-0.3-1.6-0.3H166l-2.5,0.2l3.2-10.2
	c0.3-0.9,0.5-1.7,0.7-2.4c0.2-0.7,0.2-1.3,0.2-1.7c0-0.5-0.2-1-0.5-1.4c-0.3-0.4-0.7-0.6-1-0.6c-0.8,0-2.8,1.6-6.1,4.7
	c-3.3,3.1-7.1,7.2-11.6,12.3h-3.4c0.2-0.1,0.7-0.2,1.6-0.4c0.8-0.2,1.4-0.5,1.9-0.9c-1.5,0-2.8,0.1-3.7,0.3
	c-0.9,0.2-1.7,0.4-2.3,0.7c-0.8,0.4-1.6,1.1-2.4,2.1c-0.8,1-1.2,1.7-1.2,2.2c0,0.6,0.3,0.9,0.8,1.2c0.5,0.2,1.9,0.4,4.2,0.5l-3.2,4
	c-1.7,0.5-3.4,1.7-5.1,3.6c-1.7,1.9-2.5,3.4-2.5,4.4c0,0.2,0.1,0.4,0.3,0.6c0.2,0.2,0.4,0.3,0.7,0.3c1.1,0,2.5-0.8,4.3-2.4
	c1.8-1.6,4.2-4.3,7.3-8.3L147.4,25.1 M156.1,19.1c-1.2,0.1-2.6,0.2-4.2,0.2c1.6-2,3.4-4,5.1-5.9c1.8-1.9,3.7-3.8,5.7-5.7l-3.6,11
	C158.3,18.9,157.3,19,156.1,19.1z M167,27.3c0,0.2,0,0.4,0,0.6c0,0.2,0,0.4,0,0.7c0,1.8,0.2,3.3,0.7,4.4c0.5,1.1,1.1,1.7,1.8,1.7
	c0.5,0,1.8-1.3,3.8-3.8c2.1-2.6,4.2-4.8,6.3-6.8c-1.4,2-2.5,3.6-3.1,5s-1,2.6-1,3.5c0,1,0.2,1.7,0.7,2.3c0.5,0.6,1.1,0.9,1.8,0.9
	c0.9,0,2-0.5,3.2-1.4c1.2-0.9,3.5-3.2,6.9-6.9l0-2.1c-2,1.9-3.5,3.2-4.6,4c-1.1,0.8-1.8,1.2-2.2,1.2c-0.3,0-0.5-0.1-0.7-0.3
	c-0.2-0.2-0.2-0.4-0.2-0.7c0-0.4,0.2-1,0.7-2c0.5-0.9,1.1-1.9,1.8-2.9c0.3-0.3,0.7-0.8,1.2-1.4c1-1.1,1.5-2,1.5-2.8
	c0-0.7-0.2-1.4-0.5-2c-0.3-0.6-0.7-0.9-1-0.9c-0.9,0-2.7,1-5.2,3.1c-2.5,2.1-5.2,4.7-8,7.9v-0.1c0-0.4,0.1-0.9,0.3-1.4
	c0.2-0.5,0.5-1,0.9-1.4c1.3-1.5,2.4-2.7,3-3.6c0.7-0.9,1-1.5,1-1.8c0-0.3-0.2-0.5-0.7-0.7c-0.5-0.2-1-0.3-1.6-0.3
	c-1,0-2.1,0.7-3.3,2C169.3,22.7,168.1,24.7,167,27.3 M197.9,28.2L197.9,28.2c-0.8,2.4-1.1,3.9-1.1,4.7c0,0.8,0.2,1.5,0.7,2
	c0.5,0.5,1.1,0.8,1.8,0.8c0.9,0,2-0.5,3.2-1.5c1.3-1,3.5-3.2,6.8-6.8l0-2c-1.8,1.7-3.3,2.9-4.3,3.6c-1,0.7-1.8,1-2.5,1
	c-0.4,0-0.8-0.1-1-0.3c-0.2-0.2-0.4-0.5-0.4-0.8c0-1,0.6-2.3,1.8-4.1c1.2-1.7,1.8-2.8,1.8-3.1c0-0.1,0-0.3-0.1-0.4
	c0-0.1-0.1-0.3-0.2-0.5l-0.8-1.7l0.9-0.5c0.3-0.2,0.6-0.3,0.7-0.5c0.1-0.1,0.2-0.3,0.2-0.4c0-0.5-0.2-1-0.7-1.6
	c-0.5-0.6-1-0.8-1.5-0.8c-0.4,0-1,0.1-2,0.4c-0.9,0.2-1.9,0.6-3,1c-1.5,0.6-2.9,1.2-4.1,1.9c-1.2,0.7-2.4,1.5-3.5,2.4
	c-1.5,1.2-2.6,2.4-3.4,3.6c-0.8,1.2-1.2,2.3-1.2,3.3c0,1.4,0.5,2.8,1.4,4.4c1,1.6,1.7,2.4,2.3,2.4c0.7,0,1.7-0.5,3-1.6
	C194.1,32.1,195.8,30.4,197.9,28.2 M194.9,27.5c-2.2,2-3.7,3-4.5,3c-0.2,0-0.4-0.1-0.6-0.4c-0.2-0.2-0.2-0.6-0.2-0.9
	c0-1.5,0.7-2.8,2.2-4.1c1.5-1.2,4.8-2.9,9.8-5.1C199.4,23.1,197.1,25.5,194.9,27.5z M218.3,29.3c-2.3,3.4-4.3,6.4-5.8,9.2
	c-1.5,2.8-2.3,4.5-2.3,5.2c0,0.7,0.2,1.5,0.5,2.3c0.3,0.8,0.6,1.2,0.8,1.2c0.2,0,2.1-2.2,5.9-6.7c3.7-4.4,7.5-8.8,11.3-13v-2.1
	c-1.7,1.9-3.4,3.7-5.3,5.4c-1.8,1.7-3.7,3.3-5.7,4.8c1.5-2.5,3.3-5.4,5.5-8.6c2.2-3.3,3.3-5.3,3.3-6.1c0-0.7-0.1-1.2-0.3-1.5
	c-0.2-0.3-0.6-0.6-1.1-0.6c-3.2,3.3-6.2,6-9.1,8.3c-2.9,2.3-4.7,3.4-5.3,3.4c-0.1,0-0.1,0-0.2-0.1c0-0.1,0-0.2,0-0.4
	c0-0.4,0.1-0.9,0.4-1.4c0.2-0.5,0.7-1.1,1.3-1.8c1.9-1.5,3.4-3,4.5-4.3c1.1-1.3,1.7-2.3,1.7-2.8c0-0.3-0.3-0.7-0.8-1.2
	c-0.5-0.5-1-0.7-1.4-0.7c-0.3,0-1.1,0.5-2.3,1.4c-1.2,1-2.4,2-3.5,3.3c-1.1,1.2-1.9,2.4-2.4,3.5c-0.5,1.1-0.8,2.2-0.8,3.3
	c0,1.3,0.4,2.7,1.1,4s1.4,2,2,2c0.5,0,1.5-0.5,3.1-1.6C214.8,32.4,216.5,31,218.3,29.3 M238.5,28.2L238.5,28.2
	c-0.8,2.4-1.1,3.9-1.1,4.7c0,0.8,0.2,1.5,0.7,2c0.5,0.5,1.1,0.8,1.8,0.8c0.9,0,2-0.5,3.2-1.5c1.3-1,3.5-3.2,6.8-6.8l0-2
	c-1.8,1.7-3.3,2.9-4.3,3.6c-1,0.7-1.8,1-2.5,1c-0.4,0-0.8-0.1-1-0.3c-0.2-0.2-0.4-0.5-0.4-0.8c0-1,0.6-2.3,1.8-4.1
	c1.2-1.7,1.8-2.8,1.8-3.1c0-0.1,0-0.3-0.1-0.4c0-0.1-0.1-0.3-0.2-0.5l-0.8-1.7l0.9-0.5c0.3-0.2,0.6-0.3,0.7-0.5
	c0.1-0.1,0.2-0.3,0.2-0.4c0-0.5-0.3-1-0.7-1.6c-0.5-0.6-1-0.8-1.5-0.8c-0.4,0-1,0.1-2,0.4c-0.9,0.2-1.9,0.6-3,1
	c-1.5,0.6-2.9,1.2-4.1,1.9c-1.2,0.7-2.4,1.5-3.5,2.4c-1.5,1.2-2.6,2.4-3.4,3.6c-0.8,1.2-1.2,2.3-1.2,3.3c0,1.4,0.5,2.8,1.4,4.4
	c1,1.6,1.7,2.4,2.3,2.4c0.7,0,1.7-0.5,3-1.6C234.8,32.1,236.5,30.4,238.5,28.2 M235.6,27.5c-2.2,2-3.7,3-4.5,3
	c-0.2,0-0.4-0.1-0.6-0.4c-0.2-0.2-0.2-0.6-0.2-0.9c0-1.5,0.7-2.8,2.2-4.1c1.5-1.2,4.8-2.9,9.8-5.1C240,23.1,237.8,25.5,235.6,27.5z
	 M257.6,13.4c-0.2,0.4-0.4,0.8-0.8,1.3c-0.4,0.5-0.5,0.8-0.5,1c0,0.1,0,0.2,0.1,0.2c0.1,0,0.2,0.1,0.3,0.1c0.2,0,0.6-0.2,1-0.6
	c0.4-0.4,1-1.1,1.7-1.9c0.6-0.8,1.1-1.6,1.5-2.4c0.4-0.8,0.5-1.4,0.5-2c0-0.4-0.1-0.6-0.3-0.9c-0.2-0.2-0.5-0.3-0.8-0.3
	c-0.9,0-1.8,0.5-2.7,1.6c-0.9,1.1-1.4,2.1-1.4,2.9c0,0.3,0.1,0.6,0.2,0.7c0.1,0.2,0.4,0.2,0.7,0.2c0.1,0,0.3,0,0.5-0.1L257.6,13.4
	 M270.1,25.6c-2.2,2-4,3.6-5.7,4.6c-1.6,1-2.9,1.6-4,1.6c-0.2,0-0.4,0-0.6-0.1c-0.2,0-0.5-0.1-0.8-0.2c1.7-0.5,3.2-1.6,4.5-3.4
	c1.3-1.8,1.9-3.6,1.9-5.5c0-1-0.1-2.1-0.4-3.3c-0.3-1.2-0.4-1.9-0.4-2.1c0,0,0-0.2,0-0.4c0-0.2,0-0.4,0-0.5c0-0.3-0.1-0.4-0.2-0.6
	c-0.1-0.1-0.3-0.2-0.7-0.2c-1,0-1.8,0.2-2.3,0.7c-0.5,0.4-0.9,1.2-1.1,2.4c-0.6,0.7-1.4,1.6-2.5,2.8c-1.1,1.2-2.7,2.8-4.6,4.7v1.8
	c-0.5,0.2-0.9,0.5-1.2,0.9c-0.3,0.4-0.4,0.8-0.4,1.4c0,1.3,0.7,2.6,2.1,3.8c1.4,1.2,2.8,1.8,4.4,1.8c1.5,0,3.2-0.7,5.3-2
	c2-1.3,4.3-3.4,6.9-6.1L270.1,25.6 M255.2,26.4c2.3-2.1,3.9-3.7,4.9-4.8c0.2,0.8,0.4,1.5,0.5,2.1c0.1,0.6,0.1,1.1,0.1,1.6
	c0,1.1-0.2,2.1-0.7,2.9c-0.5,0.8-1.3,1.6-2.4,2.3c-0.6-1-1.2-1.7-1.7-2.1c-0.6-0.4-1.2-0.6-1.8-0.6c0,0-0.1,0-0.2,0
	c-0.1,0-0.2,0-0.2,0C254,27.5,254.5,27,255.2,26.4z"/>
<g>
	<path class="st1" d="M49.7,42.5l-0.9-2.3h-1.6v5.6h1.2v-2.1l0.8,2.1h0.5l0.8-2.2v2.2h1.8v-5.6h-1.7L49.7,42.5z M61.4,43.6H63v-1.2
		h-1.5v-1H63v-1.2h-3.4v5.6h3.5v-1.2h-1.7V43.6z M74.3,40.2H73l-0.7,1.2l-0.6-1.2h-2l0.2,0.4l1.3,2.7l-1.5,2.6H71l0.8-1.5l0.7,1.5h2
		l-1.6-3.3L74.3,40.2z M81.2,45.8H83v-5.6h-1.8V45.8z M91.1,45.3L91.1,45.3L91.1,45.3L91.1,45.3z M94.3,43.6l-0.1,0.3
		c-0.1,0.3-0.3,0.6-0.5,0.7c-0.2,0.2-0.3,0.2-0.5,0.2c-0.3,0-0.6-0.1-0.8-0.4h0C92.2,44,92,43.6,92,43c0-0.6,0.1-1.1,0.3-1.4
		c0.2-0.3,0.4-0.4,0.7-0.4c0.2,0,0.4,0.1,0.5,0.2c0.2,0.1,0.3,0.3,0.4,0.7l0.1,0.3l1-0.8L95,41.4c-0.2-0.4-0.5-0.7-0.9-1
		c-0.4-0.2-0.8-0.3-1.2-0.3c-0.8,0-1.5,0.3-2,0.8c-0.5,0.6-0.8,1.3-0.8,2.1c0,0.4,0.1,0.9,0.2,1.2c0.2,0.4,0.4,0.7,0.7,1
		c0.2,0.2,0.5,0.4,0.8,0.5c0.3,0.1,0.6,0.2,1,0.2c0.5,0,1-0.1,1.4-0.4c0.4-0.3,0.7-0.6,0.9-1.1l0.1-0.2l-0.2-0.1L94.3,43.6z
		 M103.3,40.2l-1.7,5.6h1.2l0.5-1.5h1.2l0.5,1.5h1.9l-1.8-5.6H103.3z M103.6,43.2l0.2-0.8l0.2,0.8H103.6z M116.5,40.2v2l-1.1-2h-1.8
		v5.6h1.2v-3.1l1.8,3.1h1.1v-5.6H116.5z"/>
	<path class="st1" d="M138.2,40.2H137l-1,2v-2h-1.8v5.6h1.8V44l0.9,1.8h2l-1.7-3.5L138.2,40.2z M145.3,45.8h1.8v-5.6h-1.8V45.8z
		 M154.1,41.4h1.2v4.4h1.8v-4.4h1.2v-1.2h-4.2V41.4z M169.1,43.6l-0.1,0.3c-0.1,0.3-0.3,0.6-0.5,0.7h0c-0.2,0.2-0.3,0.2-0.5,0.2
		c-0.3,0-0.6-0.1-0.8-0.4l0,0c-0.2-0.3-0.3-0.7-0.3-1.3c0-0.6,0.1-1.1,0.3-1.4c0.2-0.3,0.4-0.4,0.7-0.4c0.2,0,0.4,0.1,0.5,0.2
		c0.2,0.1,0.3,0.3,0.4,0.7l0.1,0.3l1-0.8l-0.1-0.2c-0.2-0.4-0.5-0.7-0.9-1c-0.4-0.2-0.8-0.3-1.2-0.3c-0.8,0-1.5,0.3-2,0.8
		c-0.5,0.6-0.8,1.3-0.8,2.1c0,0.4,0.1,0.9,0.2,1.2c0.2,0.4,0.4,0.7,0.7,1l0,0c0.2,0.2,0.5,0.4,0.8,0.5c0.3,0.1,0.6,0.2,1,0.2
		c0.5,0,1-0.1,1.4-0.4c0.4-0.3,0.7-0.6,0.9-1.1l0.1-0.2l-0.2-0.1L169.1,43.6z M179.7,42.4h-0.9v-2.2h-1.8v5.6h1.8v-2.2h0.9v2.2h1.8
		v-5.6h-1.8V42.4z M190.8,43.6h1.5v-1.2h-1.5v-1h1.6v-1.2H189v5.6h3.5v-1.2h-1.7V43.6z M202.7,40.2v2l-1.1-2h-1.8v5.6h1.2v-3.1
		l1.8,3.1h1.1v-5.6H202.7z"/>
	<path class="st1" d="M221.1,45.6c-0.2,0-0.3-0.1-0.4-0.2c-0.1-0.1-0.2-0.3-0.2-0.4c0-0.2,0.1-0.3,0.2-0.4c0.1-0.1,0.3-0.2,0.4-0.2
		c0.2,0,0.3,0.1,0.4,0.2c0.1,0.1,0.2,0.3,0.2,0.4c0,0.2-0.1,0.3-0.2,0.4C221.4,45.6,221.3,45.6,221.1,45.6 M226.4,45.6
		c0.2,0,0.3-0.1,0.4-0.2c0.1-0.1,0.2-0.3,0.2-0.4c0-0.2-0.1-0.3-0.2-0.4c-0.1-0.1-0.3-0.2-0.4-0.2c-0.2,0-0.3,0.1-0.4,0.2
		c-0.1,0.1-0.2,0.3-0.2,0.4c0,0.2,0.1,0.3,0.2,0.4C226.1,45.6,226.3,45.6,226.4,45.6 M231.7,45.6c0.2,0,0.3-0.1,0.4-0.2
		c0.1-0.1,0.2-0.3,0.2-0.4c0-0.2-0.1-0.3-0.2-0.4c-0.1-0.1-0.3-0.2-0.4-0.2c-0.2,0-0.3,0.1-0.4,0.2c-0.1,0.1-0.2,0.3-0.2,0.4
		c0,0.2,0.1,0.3,0.2,0.4C231.4,45.6,231.6,45.6,231.7,45.6 M237.6,45.6h1.4v-5.2l-2.4,0.4v0.5l1-0.2V45.6 M245.8,43.3l-1.1,2.2h1.5
		l0.9-1.8c0,0,0-0.1,0.1-0.1c0.3-0.7,0.5-1.3,0.5-1.7c0-0.5-0.2-0.9-0.5-1.2c-0.3-0.3-0.7-0.4-1.3-0.4c-0.5,0-1,0.2-1.4,0.5
		c-0.4,0.3-0.6,0.8-0.6,1.3c0,0.4,0.1,0.7,0.4,1c0.2,0.2,0.6,0.4,1,0.4c0.1,0,0.2,0,0.2,0C245.6,43.4,245.7,43.4,245.8,43.3
		 M245.4,41.2c0.1-0.2,0.2-0.3,0.4-0.3c0.1,0,0.2,0.1,0.3,0.2c0.1,0.1,0.1,0.3,0.1,0.6c0,0.3,0,0.6-0.1,0.7
		c-0.1,0.2-0.2,0.3-0.4,0.3c-0.1,0-0.2-0.1-0.3-0.2c-0.1-0.1-0.1-0.3-0.1-0.6C245.3,41.7,245.3,41.4,245.4,41.2z M253.1,42.6
		l0.9-2.1h-1.5l-0.8,1.8c-0.2,0.4-0.3,0.8-0.4,1.1c-0.1,0.3-0.1,0.6-0.1,0.8c0,0.5,0.2,0.9,0.5,1.2c0.3,0.3,0.8,0.4,1.3,0.4
		c0.6,0,1-0.2,1.4-0.5c0.4-0.4,0.6-0.8,0.6-1.3c0-0.4-0.1-0.8-0.4-1c-0.2-0.2-0.6-0.4-1-0.4c-0.1,0-0.2,0-0.3,0
		C253.2,42.5,253.1,42.5,253.1,42.6 M253.4,44.8c-0.1,0.2-0.2,0.3-0.4,0.3c-0.1,0-0.2-0.1-0.3-0.2c-0.1-0.2-0.1-0.4-0.1-0.6
		c0-0.3,0-0.6,0.1-0.8c0.1-0.2,0.2-0.3,0.4-0.3c0.1,0,0.2,0.1,0.3,0.2c0.1,0.2,0.1,0.4,0.1,0.6C253.5,44.3,253.5,44.6,253.4,44.8z
		 M260.4,42.6l0.9-2.1h-1.5l-0.8,1.8c-0.2,0.4-0.3,0.8-0.4,1.1c-0.1,0.3-0.1,0.6-0.1,0.8c0,0.5,0.2,0.9,0.5,1.2
		c0.3,0.3,0.8,0.4,1.3,0.4c0.6,0,1-0.2,1.4-0.5c0.4-0.4,0.6-0.8,0.6-1.3c0-0.4-0.1-0.8-0.4-1c-0.2-0.2-0.6-0.4-1-0.4
		c-0.1,0-0.2,0-0.3,0C260.5,42.5,260.5,42.5,260.4,42.6 M260.7,44.8c-0.1,0.2-0.2,0.3-0.4,0.3c-0.1,0-0.2-0.1-0.3-0.2
		c-0.1-0.2-0.1-0.4-0.1-0.6c0-0.3,0-0.6,0.1-0.8c0.1-0.2,0.2-0.3,0.4-0.3c0.1,0,0.2,0.1,0.3,0.2c0.1,0.2,0.1,0.4,0.1,0.6
		C260.9,44.3,260.8,44.6,260.7,44.8z"/>
</g>
<path class="st1" d="M184.2,2.7c-0.3,0-0.6,0-1,0c-0.3,0-0.8,0-1.1,0c-0.1,0.1-0.1,0.3,0,0.4l0.2,0.1c0.1,0,0.2,0.1,0.2,0.1
	c0,0.1-0.2,0.7-0.3,0.9c-0.5,1.3-1.1,2.5-1.6,3.7c-0.1-0.1-0.2-0.4-0.5-1l-0.5-1c-0.1-0.2-0.1-0.2-0.1-0.3c0-0.1,0.1-0.3,0.2-0.5
	c0.1-0.3,0.4-0.7,0.7-1.2c0.4-0.6,0.5-0.7,0.8-0.7l0.3-0.1c0.1-0.1,0.1-0.3,0-0.4c-0.3,0-0.7,0-1.1,0c-0.4,0-0.8,0-1.1,0
	c-0.1,0.1-0.1,0.3,0,0.4l0.3,0.1c0.2,0,0.2,0.1,0.2,0.1c0,0.1-0.1,0.4-0.3,0.8l-0.1,0.2c-0.1,0.2-0.2,0.4-0.3,0.6
	c-0.1-0.2-0.2-0.4-0.3-0.6l-0.3-0.7c-0.1-0.1-0.1-0.2-0.1-0.3c0-0.1,0.2-0.1,0.3-0.1l0.2,0c0.1-0.1,0.1-0.3,0-0.4
	c-0.3,0-0.7,0-1.3,0c-0.5,0-0.9,0-1.4,0c-0.1,0-0.1,0.3,0,0.4l0.1,0c0.4,0,0.5,0.1,0.8,0.6l1.1,2.2c0,0.1,0.1,0.2,0.1,0.3
	c0,0.1-0.1,0.3-0.1,0.5l-0.1,0.3c-0.2,0.5-0.4,0.8-0.5,1c-0.1-0.2-0.2-0.5-0.6-1.1l-1.1-2.3c-0.3-0.7-0.6-1.2-0.6-1.3
	c0-0.1,0.1-0.1,0.3-0.2l0.2,0c0.1-0.1,0.1-0.3,0-0.4c-0.4,0-0.9,0-1.3,0c-0.6,0-1,0-1.4,0c-0.1,0.1-0.1,0.3,0,0.4l0.3,0.1
	c0.4,0.1,0.4,0.1,0.7,0.7l1.8,3.7c0.4,0.8,0.8,1.7,1,2.1c0.1,0.1,0.2,0.1,0.3,0.1c0.2,0,0.3,0,0.4-0.1c0.2-0.3,0.3-0.6,0.5-1
	l0.5-1.1c0.1-0.3,0.3-0.5,0.4-0.7c0.1,0.2,0.2,0.5,0.4,0.8l0.5,1c0.1,0.3,0.3,0.7,0.4,0.9c0.1,0.1,0.2,0.1,0.3,0.1
	c0.1,0,0.3,0,0.4-0.1c0.5-1.3,1.8-3.9,2.3-5.1c0.3-0.6,0.5-1,0.6-1.1c0.1-0.1,0.2-0.2,0.5-0.2l0.3-0.1
	C184.3,2.9,184.3,2.7,184.2,2.7z M188,2.5c-2.3,0-4,1.6-4,3.6c0,2.2,1.6,3.5,3.9,3.5c2.4,0,4-1.4,4-3.6C191.9,4,190.3,2.5,188,2.5z
	 M188.1,9.2c-1.8,0-2.3-2-2.3-3.3c0-1.7,0.7-2.9,2.1-2.9c1.4,0,2.2,1.4,2.2,3.2C190.1,7.9,189.5,9.2,188.1,9.2z M200.1,9.2
	c-0.2,0-0.5-0.1-0.7-0.3c-0.5-0.4-1-1.2-1.7-2.6c-0.1-0.1-0.1-0.2,0.1-0.2c0.5-0.2,1.2-0.6,1.2-1.5c0-0.7-0.3-1.2-1-1.5
	c-0.4-0.2-1.2-0.4-2.2-0.4c-1.1,0-1.9,0-2.8,0.1c-0.1,0.1-0.1,0.3,0,0.4l0.3,0c0.5,0.1,0.5,0.2,0.5,1.2V8c0,0.9-0.1,1-0.6,1.1
	l-0.3,0.1c-0.1,0.1-0.1,0.3,0,0.4c0.6,0,1.1,0,1.6,0c0.5,0,1,0,1.6,0c0.1-0.1,0.1-0.3,0-0.4l-0.3-0.1C195.3,9,195.3,9,195.3,8V6.7
	c0-0.2,0-0.2,0.4-0.2c0.3,0,0.5,0.1,0.6,0.4c0.3,0.5,0.5,1.1,0.9,1.6c0.5,0.7,1.1,1.1,2.2,1.1c0.3,0,0.7,0,0.9-0.1
	C200.2,9.4,200.2,9.2,200.1,9.2z M196.8,5.8c-0.2,0.2-0.4,0.3-0.8,0.3c-0.7,0-0.7,0-0.7-0.4v-2c0-0.5,0-0.5,0.5-0.5
	c0.9,0,1.5,0.6,1.5,1.5C197.2,5.3,197,5.6,196.8,5.8z M206.2,7.8c-0.7,1.2-1,1.2-2,1.2c-0.8,0-1-0.1-1.2-0.3c-0.1-0.2-0.2-0.5-0.2-1
	V4.2c0-1,0.1-1,0.6-1.1l0.3,0c0.1-0.1,0.1-0.3,0-0.4c-0.6,0-1.1,0-1.6,0c-0.5,0-1.1,0-1.7,0c-0.1,0.1-0.1,0.3,0,0.4l0.3,0
	c0.5,0.1,0.6,0.2,0.6,1.1V8c0,1-0.1,1-0.6,1.1l-0.4,0.1c-0.1,0.1-0.1,0.3,0,0.4c0.7,0,1.2,0,1.8,0h1.5c0.9,0,2,0,2.6,0
	c0.2-0.3,0.4-1.1,0.5-1.7C206.5,7.7,206.3,7.7,206.2,7.8z M212.8,3c-0.8-0.3-1.7-0.3-2.6-0.3c-1.2,0-2,0-3,0.1c-0.1,0-0.1,0.3,0,0.4
	l0.2,0c0.5,0.1,0.5,0.2,0.5,1.2V8c0,0.9-0.1,1-0.6,1.1L207,9.2c-0.1,0.1-0.1,0.3,0,0.4c0.6,0,1.2,0,1.7,0c0.4,0,1,0.1,1.5,0.1
	c1.1,0,2.1-0.1,2.8-0.5c1.3-0.6,2-1.7,2-3.1C215,4.7,214.2,3.5,212.8,3z M210.6,9.1c-0.4,0-0.7-0.1-0.9-0.3
	c-0.2-0.2-0.2-0.6-0.2-1.2V3.9c0-0.3,0-0.5,0.1-0.6c0.1-0.1,0.3-0.1,0.6-0.1c2,0,3.1,1.1,3.1,3C213.2,7.5,212.6,9.1,210.6,9.1z
	 M225.5,7.6c-0.3,0.7-0.9,1.6-2.3,1.6c-1.3,0-2.6-1.1-2.6-3.2c0-2.1,1.3-3,2.6-3c1.1,0,1.8,0.5,2.1,1.5c0.1,0.1,0.4,0.1,0.4-0.1
	c-0.1-0.6-0.1-1.4-0.1-1.6c-0.3,0-1.2-0.3-2.3-0.3c-1.2,0-2.3,0.3-3.1,0.9c-0.8,0.6-1.3,1.5-1.3,2.7c0,1.3,0.6,2.1,1.4,2.7
	c0.8,0.5,1.9,0.8,3,0.8c0.9,0,1.7-0.2,2.3-0.4c0.2-0.2,0.3-0.9,0.4-1.6C225.9,7.5,225.6,7.5,225.5,7.6z M232.4,7.8
	c-0.7,1.2-1,1.2-2,1.2c-0.8,0-1-0.1-1.2-0.3c-0.1-0.2-0.2-0.5-0.2-1V4.2c0-1,0.1-1,0.6-1.1l0.3,0c0.1-0.1,0.1-0.3,0-0.4
	c-0.6,0-1.1,0-1.6,0c-0.5,0-1.1,0-1.7,0c-0.1,0.1-0.1,0.3,0,0.4l0.3,0c0.5,0.1,0.6,0.2,0.6,1.1V8c0,1-0.1,1-0.6,1.1l-0.4,0.1
	c-0.1,0.1-0.1,0.3,0,0.4c0.7,0,1.2,0,1.8,0h1.5c0.9,0,2,0,2.6,0c0.2-0.3,0.4-1.1,0.5-1.7C232.7,7.7,232.5,7.7,232.4,7.8z M239.8,9.1
	c-0.4-0.1-0.5-0.3-0.7-0.9l-1.5-4c-0.3-0.7-0.4-1.1-0.5-1.4c0-0.2-0.1-0.2-0.3-0.2c0,0-0.4,0.5-1,0.6c0,0.3-0.2,0.7-0.4,1.3l-1,2.5
	c-0.3,0.7-0.5,1.2-0.7,1.6c-0.2,0.4-0.4,0.5-0.7,0.5l-0.3,0c-0.1,0.1-0.1,0.3,0,0.4c0.5,0,0.8,0,1.1,0c0.5,0,0.9,0,1.3,0
	c0.1-0.1,0.1-0.3,0-0.4l-0.3-0.1c-0.3-0.1-0.4-0.1-0.4-0.2c0-0.1,0-0.2,0.1-0.4l0.4-1.2c0.1-0.2,0.1-0.2,0.4-0.2h1.2
	c0.4,0,0.5,0,0.5,0.2l0.3,0.9c0.1,0.4,0.2,0.6,0.2,0.7c0,0.1,0,0.1-0.3,0.2L237,9.2c-0.1,0.1-0.1,0.3,0,0.4c0.5,0,0.9,0,1.5,0
	c0.6,0,1.2,0,1.7,0c0.1-0.1,0.1-0.3,0-0.4L239.8,9.1z M236.5,6.6h-1c-0.3,0-0.3,0-0.2-0.3l0.3-0.8c0.2-0.5,0.3-0.9,0.5-1.1
	c0.1,0.2,0.2,0.6,0.4,1.1l0.3,0.8C236.8,6.6,236.8,6.6,236.5,6.6z M243.8,5.5l-0.7-0.4c-0.6-0.3-1-0.7-1-1.2c0-0.5,0.4-1,1.1-1
	c0.8,0,1.3,0.8,1.5,1.3c0.1,0.1,0.4,0.1,0.4,0c0-0.7-0.1-1.2-0.2-1.5c-0.1,0-0.2,0-0.4-0.1c-0.4-0.1-0.9-0.2-1.3-0.2
	c-1.6,0-2.6,0.8-2.6,2c0,1,0.9,1.6,1.7,2c0.7,0.3,1.5,0.8,1.5,1.6c0,0.5-0.4,1-1.2,1c-0.9,0-1.7-0.9-1.9-1.6c-0.1-0.1-0.3-0.1-0.4,0
	c0,0.7,0.1,1.4,0.4,1.7c0.2,0.1,0.9,0.4,1.9,0.4c1.7,0,2.8-0.8,2.8-2.1C245.4,6.4,244.5,5.8,243.8,5.5z M249.6,5.5l-0.7-0.4
	c-0.6-0.3-1-0.7-1-1.2c0-0.5,0.4-1,1.1-1c0.8,0,1.3,0.8,1.5,1.3c0.1,0.1,0.4,0.1,0.4,0c0-0.7-0.1-1.2-0.2-1.5c-0.1,0-0.2,0-0.4-0.1
	c-0.4-0.1-0.9-0.2-1.3-0.2c-1.6,0-2.6,0.8-2.6,2c0,1,0.9,1.6,1.7,2c0.7,0.3,1.5,0.8,1.5,1.6c0,0.5-0.4,1-1.2,1
	c-0.9,0-1.7-0.9-1.9-1.6c-0.1-0.1-0.3-0.1-0.4,0c0,0.7,0.1,1.4,0.4,1.7c0.2,0.1,0.9,0.4,1.9,0.4c1.7,0,2.8-0.8,2.8-2.1
	C251.1,6.4,250.3,5.8,249.6,5.5z"/>
</svg>
